<svg xmlns="http://www.w3.org/2000/svg" width="56" height="56" fill="none" viewBox="0 0 56 56">
    <rect width="56" height="56" fill="#0A0D12" rx="16"/>
    <rect width="55" height="55" x=".5" y=".5" stroke="#A4A7AE" stroke-opacity=".2" rx="15.5"/>
    <path fill="#EDEF5D" d="M31.2 27.2v-2.4a.4.4 0 0 0-.4-.4H28v-3.2c0-1.133.834-2.02 1.898-2.02 1.12 0 2.103.944 2.103 2.02a.4.4 0 0 0 .4.4h2.4a.4.4 0 0 0 .4-.4c0-2.819-2.428-5.2-5.303-5.2-2.81 0-5.097 2.333-5.097 5.2v3.2H22a.399.399 0 0 0-.4.4v2.4a.4.4 0 0 0 .4.4h2.8v7.2c0 1.084-.916 2-2 2s-2-.916-2-2a.4.4 0 0 0-.4-.4H18a.4.4 0 0 0-.4.4c0 2.867 2.332 5.2 5.2 5.2 2.867 0 5.2-2.333 5.2-5.2v-7.2h2.8a.4.4 0 0 0 .4-.4Zm5.397 8.8 1.348-1.348a1.555 1.555 0 0 0 0-2.197 1.555 1.555 0 0 0-2.197 0L34.4 33.803l-1.348-1.348a1.555 1.555 0 0 0-2.197 0 1.555 1.555 0 0 0 0 2.197L32.203 36l-1.348 1.349a1.555 1.555 0 0 0 1.098 2.65c.398 0 .796-.151 1.099-.454l1.348-1.348 1.348 1.348a1.555 1.555 0 0 0 2.197 0 1.555 1.555 0 0 0 0-2.197L36.597 36Z"/>
</svg>
