<svg xmlns="http://www.w3.org/2000/svg" width="24" height="24" fill="none" viewBox="0 0 24 24">
    <path fill="#D5D7DA" d="M19.8 9.951v-4.47a1.597 1.597 0 0 0 .013-2.96 1.599 1.599 0 0 0-2.09.866 1.6 1.6 0 0 0 .877 2.094v2.978C16.88 6.691 14.56 5.6 12 5.6c-2.559 0-4.878 1.092-6.6 2.86V5.482A1.597 1.597 0 0 0 4.8 2.4a1.6 1.6 0 0 0-.6 3.081v4.471A10.932 10.932 0 0 0 2.4 16c0 3.094 4.299 5.6 9.6 5.6 5.304 0 9.6-2.506 9.6-5.6 0-2.26-.672-4.343-1.8-6.049ZM12 17.6c-3.315 0-6-.717-6-1.6 0-1.875.458-3.572 1.2-4.8a14.8 14.8 0 0 0 9.6 0c.743 1.228 1.2 2.925 1.2 4.8 0 .883-2.686 1.6-6 1.6Z"/>
    <path fill="#D5D7DA" d="M16 15a.999.999 0 1 1-2 0 1 1 0 1 1 2 0Zm-6 0a.999.999 0 1 1-1.999 0 1 1 0 1 1 2 0Z"/>
</svg>
