<svg xmlns="http://www.w3.org/2000/svg" width="49" height="51" fill="none" viewBox="0 0 49 51">
    <path fill="#FDFDFD" d="M21.432 10.97c.346.105.68.235 1.01.375.088-4.34 3.75-7.845 8.24-7.845 4.491 0 8.25 3.59 8.25 8 0 1.86-.67 3.67-1.892 5.1a.477.477 0 0 0-.036.585l1.35 2.065-3.433-.74a.547.547 0 0 0-.356.045 8.455 8.455 0 0 1-3.877.94c-.748 0-1.47-.105-2.156-.285.047.345.072.695.083 1.05.67.15 1.36.235 2.073.235a9.55 9.55 0 0 0 4.192-.97l4.465.96c.036.01.072.01.113.01.165 0 .325-.08.423-.215a.495.495 0 0 0 .016-.555l-1.816-2.78a8.823 8.823 0 0 0 1.898-5.45c0-4.965-4.161-9-9.281-9-5.12 0-8.967 3.755-9.256 8.47l-.01.005Z"/>
    <path fill="#FDFDFD" d="M26.563 8h8.25v1h-8.25V8Zm0 3h8.25v1h-8.25v-1Zm2.062 3h6.188v1h-6.188v-1ZM16.09 18.5h-.237l-.541 2h1.325l-.547-2Z"/>
    <path fill="#FDFDFD" d="M13.95 28.445a9.437 9.437 0 0 0 4.363 1.055c5.125 0 9.28-4.03 9.28-9s-4.155-9-9.28-9c-5.126 0-9.282 4.03-9.282 9 0 2.18.8 4.18 2.13 5.735L9.03 29.5l4.92-1.055Zm5.63-5.945h1.29v-4h-1.29v-1h3.61v1h-1.289v4h1.29v1h-3.61v-1Zm-4.624-4.625a.516.516 0 0 1 .5-.375h1.031a.52.52 0 0 1 .5.375l1.527 5.625h-1.068l-.541-2h-1.867l-.541 2H13.43l1.526-5.625Zm-1.468 28.251c-.97 0-1.801-.205-2.492-.616A4.09 4.09 0 0 1 9.4 43.76c-.364-.756-.546-1.657-.546-2.702 0-.784.103-1.484.308-2.1.215-.625.518-1.153.91-1.582a3.976 3.976 0 0 1 1.47-1.008c.579-.243 1.227-.364 1.946-.364.579 0 1.13.084 1.652.252.523.159.975.397 1.358.714.121.093.2.2.238.322a.465.465 0 0 1 .014.336.541.541 0 0 1-.168.266.41.41 0 0 1-.28.098c-.112 0-.238-.047-.378-.14a3.457 3.457 0 0 0-1.106-.602 4.181 4.181 0 0 0-1.302-.196c-.737 0-1.363.159-1.876.476-.513.308-.9.76-1.162 1.358-.261.597-.392 1.32-.392 2.17 0 .85.13 1.577.392 2.184.261.597.649 1.055 1.162 1.372.513.308 1.139.462 1.876.462.457 0 .891-.065 1.302-.196.41-.14.789-.345 1.134-.616.14-.093.266-.135.378-.126a.41.41 0 0 1 .28.098.5.5 0 0 1 .154.252.477.477 0 0 1 0 .322.529.529 0 0 1-.21.294 4.09 4.09 0 0 1-1.386.77 5.46 5.46 0 0 1-1.68.252Zm5.556-.028c-.187 0-.327-.051-.42-.154-.093-.103-.14-.247-.14-.434v-8.904c0-.187.047-.327.14-.42.093-.103.233-.154.42-.154.177 0 .317.051.42.154.103.093.154.233.154.42v4.102h-.182c.196-.541.513-.947.952-1.218.448-.28.961-.42 1.54-.42.541 0 .99.098 1.344.294.364.196.635.495.812.896.177.392.266.891.266 1.498v3.752c0 .187-.051.331-.154.434-.093.103-.229.154-.406.154-.187 0-.331-.051-.434-.154-.093-.103-.14-.247-.14-.434v-3.682c0-.635-.126-1.097-.378-1.386-.243-.299-.635-.448-1.176-.448-.625 0-1.125.196-1.498.588-.364.383-.546.896-.546 1.54v3.388c0 .392-.191.588-.574.588Zm9.539.028a2.9 2.9 0 0 1-1.26-.266 2.283 2.283 0 0 1-.868-.756 1.856 1.856 0 0 1-.322-1.064c0-.504.126-.9.378-1.19.261-.29.686-.495 1.274-.616.597-.121 1.41-.182 2.436-.182h.63v.742h-.616c-.756 0-1.353.037-1.792.112-.43.065-.733.182-.91.35-.168.168-.252.406-.252.714 0 .383.13.695.392.938.27.243.635.364 1.092.364a1.807 1.807 0 0 0 1.652-.994c.168-.308.252-.663.252-1.064v-1.596c0-.579-.117-.994-.35-1.246-.233-.261-.616-.392-1.148-.392a3.92 3.92 0 0 0-.98.126 5.07 5.07 0 0 0-1.036.406c-.13.065-.243.089-.336.07a.424.424 0 0 1-.224-.154.494.494 0 0 1-.098-.252c-.01-.103.01-.2.056-.294a.594.594 0 0 1 .252-.224c.41-.205.817-.355 1.218-.448.401-.093.784-.14 1.148-.14.588 0 1.073.098 1.456.294.383.187.667.476.854.868.187.383.28.877.28 1.484v3.794c0 .187-.047.331-.14.434-.084.103-.21.154-.378.154-.177 0-.313-.051-.406-.154-.093-.103-.14-.247-.14-.434v-1.092h.126c-.075.355-.22.658-.434.91a2.096 2.096 0 0 1-.77.588c-.308.14-.653.21-1.036.21Zm8.012 0c-.532 0-.98-.093-1.344-.28a1.877 1.877 0 0 1-.798-.84c-.178-.373-.266-.826-.266-1.358v-3.57h-.938c-.159 0-.28-.037-.364-.112a.454.454 0 0 1-.126-.336c0-.14.042-.247.126-.322.084-.075.205-.112.364-.112h.938v-1.61c0-.187.051-.327.154-.42a.567.567 0 0 1 .42-.154c.177 0 .312.051.406.154.102.093.154.233.154.42v1.61h1.764c.158 0 .28.037.364.112.084.075.126.182.126.322s-.042.252-.126.336c-.084.075-.206.112-.364.112H35.32v3.458c0 .532.112.938.336 1.218.224.27.588.406 1.092.406.177 0 .326-.019.448-.056.13-.037.238-.056.322-.056a.229.229 0 0 1 .21.084c.056.065.084.177.084.336a.68.68 0 0 1-.07.308.338.338 0 0 1-.21.196c-.112.037-.262.07-.448.098-.178.037-.34.056-.49.056Z"/>
</svg>
