<svg xmlns="http://www.w3.org/2000/svg" width="24" height="24" fill="none" viewBox="0 0 24 24">
    <g clip-path="url(#a)">
        <path fill="#181D27" d="M12 0C5.373 0 0 5.373 0 12s5.373 12 12 12 12-5.373 12-12S18.627 0 12 0Zm4.387 17.751a.576.576 0 0 1-.946.441L12 14.762l-3.441 3.43a.576.576 0 0 1-.946-.44V7.004a1.333 1.333 0 0 1 1.332-1.333h6.11a1.333 1.333 0 0 1 1.332 1.333V17.75Z"/>
        <path fill="#EDEF5D" d="M16.387 17.751a.576.576 0 0 1-.946.441L12 14.762l-3.441 3.43a.576.576 0 0 1-.946-.44V7.004a1.333 1.333 0 0 1 1.332-1.333h6.11a1.333 1.333 0 0 1 1.332 1.333V17.75Z"/>
    </g>
    <defs>
        <clipPath id="a">
            <path fill="#fff" d="M0 0h24v24H0z"/>
        </clipPath>
    </defs>
</svg>
