<svg width="32" height="33" viewBox="0 0 32 33" fill="none" xmlns="http://www.w3.org/2000/svg">
<circle cx="16" cy="16.5" r="15.3904" stroke="white" stroke-opacity="0.5" stroke-width="1.21921"/>
<path d="M11.2734 16.1029C11.2734 16.2947 11.3425 16.4635 11.4883 16.6093L17.573 22.5559C17.7034 22.694 17.8722 22.7631 18.0717 22.7631C18.4707 22.7631 18.7776 22.4638 18.7776 22.0648C18.7776 21.8653 18.6932 21.6965 18.5705 21.5661L12.9845 16.1029L18.5705 10.6397C18.6932 10.5093 18.7776 10.3328 18.7776 10.141C18.7776 9.742 18.4707 9.44275 18.0717 9.44275C17.8722 9.44275 17.7034 9.51181 17.573 9.64225L11.4883 15.5965C11.3425 15.7346 11.2734 15.9111 11.2734 16.1029Z" fill="#FAFAFA"/>
</svg>
