<svg xmlns="http://www.w3.org/2000/svg" width="56" height="56" fill="none" viewBox="0 0 56 56">
    <rect width="56" height="56" fill="#0A0D12" rx="16"/>
    <rect width="55" height="55" x=".5" y=".5" stroke="#A4A7AE" stroke-opacity=".2" rx="15.5"/>
    <path fill="#FAFAFA" d="M21 28.488c0 .36.13.676.403.95l11.409 11.15c.244.258.56.388.935.388.748 0 1.323-.562 1.323-1.31 0-.374-.158-.69-.388-.935L24.208 28.488l10.474-10.244a1.38 1.38 0 0 0 .388-.935c0-.748-.575-1.309-1.323-1.309-.374 0-.69.13-.935.374l-11.41 11.164c-.273.26-.402.59-.402.95Z"/>
</svg>
