<svg xmlns="http://www.w3.org/2000/svg" width="408" height="56" fill="none" viewBox="0 0 408 56">
    <rect width="408" height="56" fill="#DB1616" rx="8"/>
    <path fill="#0A0D12" d="M164.5 25.75a3.754 3.754 0 0 0-3.75 3.75 3.754 3.754 0 0 0 3.75 3.75 3.754 3.754 0 0 0 3.75-3.75 3.754 3.754 0 0 0-3.75-3.75Zm2.25 4.5a.748.748 0 0 1-.75-.75c0-.827-.673-1.5-1.5-1.5a.748.748 0 0 1-.75-.75.749.749 0 0 1 .75-.75c1.655 0 3 1.346 3 3a.749.749 0 0 1-.75.75Zm1.898-9-.42-1.682A.752.752 0 0 0 167.5 19h-6a.75.75 0 0 0-.727.568l-.42 1.682h8.295Z"/>
    <path fill="#0A0D12" d="M173.5 22h-18c-1.24 0-2.25 1.01-2.25 2.25v10.5c0 1.24 1.01 2.25 2.25 2.25h18c1.24 0 2.25-1.01 2.25-2.25v-10.5c0-1.24-1.01-2.25-2.25-2.25ZM157 26.5a.748.748 0 0 1-.75-.75.749.749 0 0 1 1.28-.53.749.749 0 0 1-.53 1.28Zm7.5 8.25a5.256 5.256 0 0 1-5.25-5.25 5.256 5.256 0 0 1 5.25-5.25 5.256 5.256 0 0 1 5.25 5.25 5.256 5.256 0 0 1-5.25 5.25Zm25.177-.638c-.266 0-.474-.075-.624-.224-.138-.15-.208-.357-.208-.624v-9.152h-3.392c-.224 0-.4-.059-.528-.176-.128-.128-.192-.304-.192-.528 0-.224.064-.395.192-.512.128-.117.304-.176.528-.176h8.432c.235 0 .416.059.544.176.128.117.192.288.192.512 0 .224-.064.4-.192.528-.128.117-.309.176-.544.176h-3.392v9.152c0 .267-.069.475-.208.624-.128.15-.33.224-.608.224Zm5.603 0c-.267 0-.469-.07-.608-.208-.139-.15-.208-.352-.208-.608v-6.4c0-.267.069-.47.208-.608.139-.139.331-.208.576-.208.256 0 .448.07.576.208.139.139.208.341.208.608v1.168h-.16c.171-.64.485-1.125.944-1.456.459-.33 1.045-.523 1.76-.576.192-.01.341.037.448.144.117.107.181.272.192.496.021.224-.027.405-.144.544-.117.128-.299.203-.544.224l-.304.032c-.693.064-1.221.283-1.584.656-.363.373-.544.885-.544 1.536v3.632c0 .256-.069.459-.208.608-.128.139-.331.208-.608.208Zm7.477 2.88a.724.724 0 0 1-.48-.16.592.592 0 0 1-.208-.4c-.01-.16.022-.336.096-.528l1.088-2.448v.688l-2.992-6.96a1.123 1.123 0 0 1-.08-.544.552.552 0 0 1 .24-.4c.139-.107.326-.16.56-.16.203 0 .363.048.48.144.118.096.224.261.32.496l2.416 5.968h-.448l2.448-5.968c.096-.245.208-.41.336-.496.128-.096.304-.144.528-.144.192 0 .342.053.448.16.118.096.187.23.208.4a.867.867 0 0 1-.08.528l-4 9.2c-.106.245-.229.41-.368.496-.128.085-.298.128-.512.128Zm10.804-2.88c-.214 0-.384-.048-.512-.144a.552.552 0 0 1-.224-.384 1.04 1.04 0 0 1 .096-.544l4.336-9.728c.106-.256.24-.437.4-.544.17-.107.357-.16.56-.16a.93.93 0 0 1 .528.16c.17.107.309.288.416.544l4.336 9.728c.096.203.133.39.112.56a.579.579 0 0 1-.208.384c-.118.085-.283.128-.496.128-.235 0-.422-.059-.56-.176-.139-.117-.262-.299-.368-.544l-1.12-2.592.752.448h-6.816l.736-.448-1.105 2.592c-.106.256-.223.443-.351.56-.128.107-.299.16-.512.16Zm4.624-9.552-2.416 5.728-.4-.384h5.648l-.368.384-2.432-5.728h-.032Zm10.503 12.464a7.948 7.948 0 0 1-1.68-.176 4.712 4.712 0 0 1-1.456-.576.661.661 0 0 1-.32-.32.613.613 0 0 1-.048-.368.777.777 0 0 1 .176-.336.614.614 0 0 1 .304-.192.546.546 0 0 1 .4.064c.469.256.912.427 1.328.512.426.096.821.144 1.184.144.746 0 1.306-.192 1.68-.576.373-.373.56-.928.56-1.664v-1.632h.144a2.375 2.375 0 0 1-1.008 1.392c-.512.341-1.104.512-1.776.512-.704 0-1.318-.16-1.84-.48a3.339 3.339 0 0 1-1.216-1.36c-.288-.587-.432-1.27-.432-2.048 0-.587.08-1.115.24-1.584.17-.47.405-.875.704-1.216a3.112 3.112 0 0 1 1.104-.784 3.54 3.54 0 0 1 1.44-.288c.682 0 1.274.17 1.776.512.512.341.842.805.992 1.392l-.16.272v-1.328c0-.267.069-.47.208-.608.149-.139.346-.208.592-.208.256 0 .453.07.592.208.138.139.208.341.208.608v6.448c0 1.216-.315 2.133-.944 2.752-.63.619-1.547.928-2.752.928Zm-.128-4.48c.469 0 .869-.107 1.2-.32.33-.213.586-.517.768-.912.181-.395.272-.859.272-1.392 0-.8-.203-1.435-.608-1.904-.395-.47-.939-.704-1.632-.704-.459 0-.854.107-1.184.32a2.196 2.196 0 0 0-.784.912c-.182.384-.272.843-.272 1.376 0 .81.202 1.45.608 1.92.405.47.949.704 1.632.704Zm8.588 1.6a3.313 3.313 0 0 1-1.472-.32 2.576 2.576 0 0 1-1.008-.864 2.143 2.143 0 0 1-.368-1.232c0-.576.144-1.03.432-1.36.298-.341.784-.581 1.456-.72.682-.15 1.6-.224 2.752-.224h.752v.992h-.736c-.768 0-1.376.037-1.824.112-.448.075-.768.203-.96.384-.182.17-.272.41-.272.72 0 .405.138.736.416.992.277.245.661.368 1.152.368.394 0 .741-.09 1.04-.272.298-.192.533-.448.704-.768.181-.32.272-.688.272-1.104v-1.84c0-.608-.128-1.045-.384-1.312-.256-.267-.678-.4-1.264-.4-.342 0-.699.043-1.072.128-.363.085-.742.23-1.136.432-.182.085-.336.112-.464.08a.508.508 0 0 1-.304-.208.791.791 0 0 1-.128-.368c0-.139.032-.272.096-.4a.68.68 0 0 1 .368-.288 6.33 6.33 0 0 1 2.688-.624c.714 0 1.301.112 1.76.336.469.224.816.565 1.04 1.024.224.459.336 1.05.336 1.776v4.112c0 .256-.064.459-.192.608-.128.139-.315.208-.56.208-.235 0-.422-.07-.56-.208-.139-.15-.208-.352-.208-.608v-1.04h.144a2.41 2.41 0 0 1-.48 1.024c-.224.277-.507.49-.848.64a2.88 2.88 0 0 1-1.168.224Zm6.897-.048c-.256 0-.453-.075-.592-.224-.138-.16-.208-.379-.208-.656v-6.24c0-.277.07-.49.208-.64.139-.15.336-.224.592-.224.256 0 .454.075.592.224.15.15.224.363.224.64v6.24c0 .277-.069.496-.208.656-.138.15-.341.224-.608.224Zm0-9.648c-.32 0-.57-.08-.752-.24-.17-.16-.256-.384-.256-.672 0-.299.086-.523.256-.672.182-.16.432-.24.752-.24s.566.08.736.24c.182.15.272.373.272.672 0 .288-.09.512-.272.672-.17.16-.416.24-.736.24Zm3.891 9.664c-.256 0-.453-.07-.592-.208-.139-.15-.208-.352-.208-.608v-6.4c0-.267.069-.47.208-.608.139-.139.331-.208.576-.208.256 0 .448.07.576.208.139.139.208.341.208.608v1.248l-.176-.288c.235-.597.603-1.045 1.104-1.344.501-.31 1.077-.464 1.728-.464.619 0 1.131.117 1.536.352.416.224.725.57.928 1.04.203.459.304 1.04.304 1.744v4.112c0 .256-.069.459-.208.608-.139.139-.336.208-.592.208-.267 0-.469-.07-.608-.208-.139-.15-.208-.352-.208-.608V29.28c0-.672-.133-1.163-.4-1.472-.256-.31-.661-.464-1.216-.464-.651 0-1.173.203-1.568.608-.384.405-.576.95-.576 1.632v3.712c0 .544-.272.816-.816.816Z"/>
</svg>
