<svg xmlns="http://www.w3.org/2000/svg" width="52" height="52" fill="none" viewBox="0 0 52 52">
    <path fill="#DB1616" stroke="#000" stroke-linejoin="round" stroke-width="2" d="M49 50a6.996 6.996 0 0 0-3.501-6.063 1 1 0 0 1-.499-.865V14.8c0-2.324-.004-3.765-.093-4.848-.083-1.023-.216-1.281-.233-1.314a3.003 3.003 0 0 0-1.312-1.312c-.033-.017-.29-.15-1.314-.233C40.965 7.004 39.523 7 37.2 7H8.927a1 1 0 0 1-.865-.499A6.995 6.995 0 0 0 2 3a1 1 0 0 1 0-2h35.201l1.578.002h.003c3.39.012 5.553.087 7.304.98a9 9 0 0 1 3.933 3.932c.52 1.02.755 2.154.869 3.55C51 10.848 51 12.576 51 14.8V50a1 1 0 1 1-2 0Z"/>
</svg>
