<svg width="40" height="40" viewBox="0 0 40 40" fill="none" xmlns="http://www.w3.org/2000/svg">
<path d="M30.7125 11.6354H15.9175C15.3452 11.6354 14.852 12.0435 14.745 12.6057L13.0002 21.762L12.1791 18.6315C12.0416 18.107 11.5668 17.7406 11.0245 17.7406H9.28747C8.62925 17.7406 8.09375 18.2761 8.09375 18.9343C8.09375 19.5925 8.62925 20.128 9.28747 20.128H10.1036L12.0302 27.4737C12.1677 27.9982 12.6425 28.3646 13.1846 28.3646C13.1982 28.3646 13.2119 28.3643 13.2255 28.3639C13.7869 28.3447 14.2524 27.946 14.3574 27.3943L16.9052 14.0228H30.7125C31.3708 14.0228 31.9062 13.4873 31.9062 12.8291C31.9062 12.1709 31.3708 11.6354 30.7125 11.6354Z" fill="black"/>
<path d="M29.3765 17.3667C28.7919 16.782 27.8402 16.7819 27.2549 17.3666L24.097 20.5245L20.9388 17.3665C20.3541 16.7818 19.4025 16.7818 18.8176 17.3666C18.2328 17.9514 18.2328 18.903 18.8176 19.4879L21.9756 22.6459L18.8176 25.8039C18.2328 26.3887 18.2328 27.3404 18.8176 27.9252C19.1009 28.2085 19.4776 28.3646 19.8783 28.3646C20.2789 28.3646 20.6555 28.2085 20.939 27.9252L24.0969 24.7672L27.2551 27.9254C27.5384 28.2086 27.9151 28.3646 28.3156 28.3646C28.7162 28.3646 29.0929 28.2085 29.3763 27.9252C29.9611 27.3404 29.9612 26.3887 29.3763 25.8039L26.2183 22.6459L29.3763 19.4879C29.9611 18.9031 29.9612 17.9515 29.3765 17.3667Z" fill="black"/>
<path d="M15 3.75C15 4.08152 14.8683 4.39946 14.6339 4.63388C14.3995 4.8683 14.0815 5 13.75 5H8.75C6.6825 5 5 6.6825 5 8.75V13.75C5 14.0815 4.8683 14.3995 4.63388 14.6339C4.39946 14.8683 4.08152 15 3.75 15C3.41848 15 3.10054 14.8683 2.86612 14.6339C2.6317 14.3995 2.5 14.0815 2.5 13.75V8.75C2.5 5.30375 5.30375 2.5 8.75 2.5H13.75C14.0815 2.5 14.3995 2.6317 14.6339 2.86612C14.8683 3.10054 15 3.41848 15 3.75ZM31.25 2.5H26.25C25.9185 2.5 25.6005 2.6317 25.3661 2.86612C25.1317 3.10054 25 3.41848 25 3.75C25 4.08152 25.1317 4.39946 25.3661 4.63388C25.6005 4.8683 25.9185 5 26.25 5H31.25C33.3175 5 35 6.6825 35 8.75V13.75C35 14.0815 35.1317 14.3995 35.3661 14.6339C35.6005 14.8683 35.9185 15 36.25 15C36.5815 15 36.8995 14.8683 37.1339 14.6339C37.3683 14.3995 37.5 14.0815 37.5 13.75V8.75C37.5 5.30375 34.6963 2.5 31.25 2.5ZM13.75 35H8.75C6.6825 35 5 33.3175 5 31.25V26.25C5 25.9185 4.8683 25.6005 4.63388 25.3661C4.39946 25.1317 4.08152 25 3.75 25C3.41848 25 3.10054 25.1317 2.86612 25.3661C2.6317 25.6005 2.5 25.9185 2.5 26.25V31.25C2.5 34.6963 5.30375 37.5 8.75 37.5H13.75C14.0815 37.5 14.3995 37.3683 14.6339 37.1339C14.8683 36.8995 15 36.5815 15 36.25C15 35.9185 14.8683 35.6005 14.6339 35.3661C14.3995 35.1317 14.0815 35 13.75 35ZM36.25 25C35.9185 25 35.6005 25.1317 35.3661 25.3661C35.1317 25.6005 35 25.9185 35 26.25V31.25C35 33.3175 33.3175 35 31.25 35H26.25C25.9185 35 25.6005 35.1317 25.3661 35.3661C25.1317 35.6005 25 35.9185 25 36.25C25 36.5815 25.1317 36.8995 25.3661 37.1339C25.6005 37.3683 25.9185 37.5 26.25 37.5H31.25C34.6963 37.5 37.5 34.6963 37.5 31.25V26.25C37.5 25.9185 37.3683 25.6005 37.1339 25.3661C36.8995 25.1317 36.5815 25 36.25 25Z" fill="black"/>
</svg>
