<svg xmlns="http://www.w3.org/2000/svg" width="52" height="52" fill="none" viewBox="0 0 52 52">
    <path fill="#DB1616" stroke="#000" stroke-linejoin="round" stroke-width="2" d="M1 50V14.8l.001-1.485c.004-1.406.022-2.583.092-3.585.093-1.34.284-2.444.707-3.43l.013-.03.154-.327.014-.029A9 9 0 0 1 5.6 2.15l.017-.01.28-.149.017-.009c1.02-.52 2.154-.755 3.55-.869C10.848 1 12.576 1 14.8 1H50a1 1 0 1 1 0 2 6.995 6.995 0 0 0-6.062 3.501 1 1 0 0 1-.865.499H14.8c-2.324 0-3.765.004-4.848.093-1.023.083-1.28.216-1.314.233a3.003 3.003 0 0 0-1.312 1.312c-.017.033-.15.29-.233 1.314-.066.807-.086 1.822-.091 3.269L7 14.8v28.271a1 1 0 0 1-.499.865A6.996 6.996 0 0 0 3 50a1 1 0 1 1-2 0Z"/>
</svg>
