<svg xmlns="http://www.w3.org/2000/svg" width="52" height="52" fill="none" viewBox="0 0 52 52">
    <path fill="#DB1616" stroke="#000" stroke-linejoin="round" stroke-width="2" d="M49 2a1 1 0 1 1 2 0v35.201l-.002 1.578v.003c-.012 3.39-.087 5.553-.98 7.304a9 9 0 0 1-3.932 3.933c-1.75.892-3.915.967-7.304.979h-.003L37.201 51H2a1 1 0 1 1 0-2 6.995 6.995 0 0 0 6.062-3.501l.073-.11A1 1 0 0 1 8.927 45H37.2c2.323 0 3.765-.004 4.848-.093 1.023-.083 1.281-.216 1.314-.233a3.003 3.003 0 0 0 1.312-1.312c.017-.033.15-.29.233-1.314.089-1.083.093-2.525.093-4.848V8.927a1 1 0 0 1 .499-.865A6.995 6.995 0 0 0 49 2Z"/>
</svg>
