<svg xmlns="http://www.w3.org/2000/svg" width="52" height="52" fill="none" viewBox="0 0 52 52">
    <path fill="#DB1616" stroke="#000" stroke-linejoin="round" stroke-width="2" d="M7 37.2c0 2.323.004 3.765.093 4.848.083 1.023.216 1.28.233 1.314a3.003 3.003 0 0 0 1.312 1.312c.033.017.29.15 1.314.233 1.083.089 2.524.093 4.848.093h28.273a1 1 0 0 1 .865.499A6.995 6.995 0 0 0 50 49a1 1 0 1 1 0 2H14.8c-2.087 0-3.735 0-5.07-.093-1.34-.093-2.444-.284-3.43-.707l-.03-.014-.327-.153-.029-.014A9 9 0 0 1 2.15 46.4l-.01-.017-.149-.28-.009-.017c-.892-1.75-.967-3.915-.98-7.304v-.003l-.001-1.578V2a1 1 0 0 1 2 0 6.995 6.995 0 0 0 3.501 6.062A1 1 0 0 1 7 8.927V37.2Z"/>
</svg>
