<svg xmlns="http://www.w3.org/2000/svg" width="24" height="24" fill="none" viewBox="0 0 24 24">
    <path fill="#D5D7DA" d="M20 6.25h-.76a1.23 1.23 0 0 1-1.12-.69l-.9-1.79a2.73 2.73 0 0 0-2.46-1.52H9.24a2.73 2.73 0 0 0-2.46 1.52l-.9 1.79a1.23 1.23 0 0 1-1.12.69H4A2.75 2.75 0 0 0 1.25 9v10A2.75 2.75 0 0 0 4 21.75h16A2.75 2.75 0 0 0 22.75 19V9A2.75 2.75 0 0 0 20 6.25Zm-8 12A5.25 5.25 0 1 1 17.25 13 5.26 5.26 0 0 1 12 18.25Z"/>
    <path fill="#D5D7DA" d="M12 16.75a3.75 3.75 0 1 0 0-7.5 3.75 3.75 0 0 0 0 7.5Z"/>
</svg>
