<svg width="31" height="32" viewBox="0 0 31 32" fill="none" xmlns="http://www.w3.org/2000/svg">
<path d="M11.3334 20.1666L16.8867 17.3866L19.6667 11.8333L14.1134 14.6133L11.3334 20.1666ZM14.8867 15.7466C14.9243 15.6554 14.9818 15.5736 15.0548 15.5073C15.1279 15.441 15.2147 15.3917 15.3091 15.363C15.4035 15.3343 15.5031 15.3269 15.6008 15.3414C15.6984 15.3558 15.7915 15.3918 15.8736 15.4467C15.9556 15.5015 16.0244 15.5739 16.0751 15.6586C16.1258 15.7432 16.157 15.8381 16.1665 15.9363C16.1761 16.0345 16.1637 16.1336 16.1303 16.2265C16.0969 16.3193 16.0433 16.4036 15.9734 16.4733C15.8642 16.5819 15.7208 16.6495 15.5675 16.6644C15.4142 16.6793 15.2604 16.6406 15.1324 16.555C15.0044 16.4694 14.9099 16.3421 14.8651 16.1947C14.8203 16.0473 14.828 15.889 14.8867 15.7466Z" fill="#EDEF5D"/>
<path d="M26.1667 15.3333H27.5001C27.3321 12.3854 26.0832 9.60289 23.9923 7.51809C21.9013 5.43329 19.1151 4.19258 16.1667 4.03333V5.33333C16.1667 5.51014 16.0965 5.67971 15.9715 5.80473C15.8464 5.92975 15.6769 5.99999 15.5001 5.99999C15.3232 5.99999 15.1537 5.92975 15.0286 5.80473C14.9036 5.67971 14.8334 5.51014 14.8334 5.33333V4.03333C11.8909 4.2005 9.1128 5.4447 7.02878 7.52872C4.94476 9.61274 3.70056 12.3908 3.53339 15.3333H4.83339C5.0102 15.3333 5.17977 15.4036 5.30479 15.5286C5.42981 15.6536 5.50005 15.8232 5.50005 16C5.50005 16.1768 5.42981 16.3464 5.30479 16.4714C5.17977 16.5964 5.0102 16.6667 4.83339 16.6667H3.53339C3.69265 19.6151 4.93335 22.4012 7.01815 24.4922C9.10295 26.5831 11.8855 27.8321 14.8334 28V26.6667C14.8334 26.4898 14.9036 26.3203 15.0286 26.1953C15.1537 26.0702 15.3232 26 15.5001 26C15.6769 26 15.8464 26.0702 15.9715 26.1953C16.0965 26.3203 16.1667 26.4898 16.1667 26.6667V28C19.1205 27.84 21.9112 26.5946 24.0029 24.5028C26.0946 22.4111 27.34 19.6205 27.5001 16.6667H26.1667C25.9899 16.6667 25.8203 16.5964 25.6953 16.4714C25.5703 16.3464 25.5001 16.1768 25.5001 16C25.5001 15.8232 25.5703 15.6536 25.6953 15.5286C25.8203 15.4036 25.9899 15.3333 26.1667 15.3333ZM21.7534 10.6667C17.6534 18.86 17.9667 18.3667 17.6867 18.5067C9.50005 22.58 10.0734 22.3267 9.84005 22.3267C9.72265 22.3288 9.60676 22.2999 9.50411 22.2429C9.40145 22.1859 9.31568 22.1028 9.25547 22.002C9.19525 21.9012 9.16273 21.7862 9.1612 21.6688C9.15966 21.5514 9.18916 21.4357 9.24672 21.3333C13.3467 13.14 13.0334 13.6333 13.3134 13.4933L20.8334 9.74666C20.9613 9.66555 21.1131 9.63044 21.2636 9.6471C21.4142 9.66376 21.5546 9.7312 21.6617 9.83832C21.7688 9.94543 21.8363 10.0858 21.8529 10.2364C21.8696 10.387 21.8345 10.5387 21.7534 10.6667Z" fill="#EDEF5D"/>
<path d="M15.5 0.666626C12.4674 0.666626 9.50284 1.56591 6.98128 3.25076C4.45973 4.93561 2.49442 7.33035 1.33387 10.1321C0.173331 12.9339 -0.13032 16.017 0.46132 18.9913C1.05296 21.9657 2.51332 24.6979 4.65772 26.8423C6.80213 28.9867 9.53427 30.447 12.5086 31.0387C15.483 31.6303 18.566 31.3267 21.3678 30.1661C24.1696 29.0056 26.5644 27.0403 28.2492 24.5187C29.9341 21.9971 30.8334 19.0326 30.8334 16C30.8334 11.9333 29.2179 8.03321 26.3423 5.15766C23.4668 2.2821 19.5667 0.666626 15.5 0.666626ZM15.5 29.3333C12.8629 29.3333 10.2851 28.5513 8.09242 27.0862C5.89977 25.6211 4.1908 23.5388 3.18163 21.1024C2.17247 18.6661 1.90842 15.9852 2.42289 13.3988C2.93736 10.8123 4.20724 8.43657 6.07194 6.57187C7.93664 4.70717 10.3124 3.43729 12.8988 2.92282C15.4852 2.40835 18.1661 2.6724 20.6025 3.68157C23.0388 4.69073 25.1212 6.3997 26.5863 8.59236C28.0514 10.785 28.8334 13.3629 28.8334 16C28.8334 19.5362 27.4286 22.9276 24.9281 25.4281C22.4276 27.9285 19.0362 29.3333 15.5 29.3333Z" fill="#EDEF5D"/>
</svg>
