<svg width="56" height="56" viewBox="0 0 56 56" fill="none" xmlns="http://www.w3.org/2000/svg">
<rect width="56" height="56" rx="16" fill="#D5D7DA" fill-opacity="0.2"/>
<path fill-rule="evenodd" clip-rule="evenodd" d="M27.3651 29.1833L30.132 32.2414L22.7143 41.1427L27.3651 29.1833ZM27.1346 28.9285L23.388 24.7875L20 28.9285H27.1346ZM32.2142 14L25.9496 21.6567L28.8275 24.8375L32.2142 14ZM36.2856 24.8571H28.8452L32.7183 29.1379L36.2856 24.8571Z" fill="white"/>
<path fill-rule="evenodd" clip-rule="evenodd" d="M37.8771 36.3376C37.8581 36.312 37.8338 36.2824 37.812 36.2583L37.8771 36.3376ZM19.4629 16.4157C19.6881 16.4271 19.9097 16.5123 20.0858 16.6731L20.154 16.7415C20.1321 16.7174 20.1094 16.6946 20.0858 16.6731C19.9108 16.5133 19.6874 16.4267 19.4629 16.4157Z" fill="white"/>
<path fill-rule="evenodd" clip-rule="evenodd" d="M27.3651 29.1833L27.4642 28.9285H27.1346L27.3651 29.1833ZM37.8771 36.3376C37.8581 36.312 37.8338 36.2824 37.812 36.2583L37.8771 36.3376ZM20.154 16.7415C20.1321 16.7174 20.1094 16.6946 20.0858 16.6731L20.154 16.7415ZM28.8275 24.8375L28.8214 24.8571H28.8452L28.8275 24.8375Z" fill="black"/>
<path d="M18.6709 18.0834L24.0284 24.0048L30.7786 31.4655L36.3289 37.6001C36.6994 38.0096 37.3318 38.0412 37.7413 37.6707C37.7925 37.6244 37.8423 37.5678 37.8816 37.5143C38.1384 37.1647 38.1409 36.6918 37.8771 36.3376L37.812 36.2583L32.0717 29.9138L25.3092 22.4394L20.154 16.7415L20.0858 16.6731C19.9097 16.5123 19.6881 16.4271 19.4629 16.4157C19.2071 16.4034 18.9463 16.4879 18.7415 16.6709C18.332 17.0414 18.3004 17.6738 18.6709 18.0834Z" fill="white"/>
<path fill-rule="evenodd" clip-rule="evenodd" d="M19.4629 16.4157C19.6881 16.4271 19.9097 16.5123 20.0858 16.6731C19.9097 16.5143 19.6882 16.4274 19.4629 16.4157ZM37.8816 37.5143C38.1384 37.1647 38.1409 36.6918 37.8771 36.3376C38.1357 36.6893 38.1329 37.1667 37.8816 37.5143Z" fill="black"/>
</svg>
