<svg xmlns="http://www.w3.org/2000/svg" width="24" height="25" fill="none" viewBox="0 0 24 25">
    <path fill="#DB0050" d="M20 5.07V18.5l-.007-.014v.014l-2.349-1.344a.3.3 0 0 1-.151-.26V8.971A3.723 3.723 0 0 0 13.429 5H8.216c-.174 0-.226-.152-.211-.325A2.22 2.22 0 0 1 10.56 2.5h6.867A2.274 2.274 0 0 1 20 5.07Zm-4 4V22.5l-6-3.428L4 22.5V9.071A2.272 2.272 0 0 1 6.571 6.5h6.858A2.272 2.272 0 0 1 16 9.071V9.07Zm-4.563.86A1.6 1.6 0 0 0 10 11.01a1.6 1.6 0 0 0-1.437-1.079c-1.444.007-2.012 1.355-1.752 2.7.424 2.18 3.189 3.438 3.189 3.438s2.765-1.258 3.189-3.443c.26-1.34-.305-2.689-1.752-2.696Z"/>
</svg>
