<svg xmlns="http://www.w3.org/2000/svg" width="56" height="56" fill="none" viewBox="0 0 56 56">
    <rect width="56" height="56" fill="#0A0D12" rx="8"/>
    <rect width="55" height="55" x=".5" y=".5" stroke="#EDEF5D" stroke-opacity=".5" rx="7.5"/>
    <path fill="#DB0050" d="M22.808 36.33c-3.744-2.886-8.141-6.274-8.141-12.147C14.667 17.699 22 13.1 28 19.335l2.667 2.664a1 1 0 0 0 1.413-1.414l-2.573-2.577c5.652-4.137 11.826.225 11.826 6.175 0 5.873-4.397 9.261-8.141 12.146-.39.3-.772.595-1.141.886-1.384 1.09-2.718 2.118-4.051 2.118-1.333 0-2.667-1.026-4.05-2.12-.37-.289-.753-.584-1.142-.884Z"/>
</svg>
