<svg width="56" height="56" viewBox="0 0 56 56" fill="none" xmlns="http://www.w3.org/2000/svg">
<rect width="56" height="56" rx="16" fill="#D5D7DA" fill-opacity="0.2"/>
<path d="M20.3333 38C19.2893 37.9981 18.2722 37.6689 17.425 37.0588C16.5779 36.4486 15.9433 35.5882 15.6107 34.5987L15.564 34.4453C15.4146 33.9779 15.3369 33.4906 15.3333 33V23.9093L12.0987 34.7067C11.9007 35.475 12.0122 36.2903 12.4091 36.9772C12.8061 37.6642 13.4568 38.1679 14.2213 38.38L34.8387 43.9013C35.096 43.968 35.3533 44 35.6067 44C36.9347 44 38.148 43.1187 38.488 41.82L39.6893 38H20.3333ZM24 24C25.4707 24 26.6667 22.804 26.6667 21.3333C26.6667 19.8627 25.4707 18.6667 24 18.6667C22.5293 18.6667 21.3333 19.8627 21.3333 21.3333C21.3333 22.804 22.5293 24 24 24Z" fill="#FDFDFD"/>
<path d="M40.6666 14.6667H20.6666C19.7829 14.6677 18.9357 15.0192 18.3108 15.6441C17.6859 16.269 17.3344 17.1163 17.3333 18V32.6667C17.3333 34.504 18.8293 36 20.6666 36H40.6666C42.504 36 44 34.504 44 32.6667V18C44 16.1627 42.504 14.6667 40.6666 14.6667ZM20.6666 17.3333H40.6666C40.8435 17.3333 41.013 17.4036 41.1381 17.5286C41.2631 17.6536 41.3333 17.8232 41.3333 18V27.4653L37.1213 22.5507C36.8986 22.2948 36.624 22.0894 36.3157 21.948C36.0074 21.8066 35.6725 21.7325 35.3333 21.7307C34.993 21.7324 34.6572 21.8086 34.3494 21.954C34.0417 22.0993 33.7695 22.3103 33.552 22.572L28.6 28.516L26.9866 26.9067C26.5479 26.4686 25.9533 26.2226 25.3333 26.2226C24.7133 26.2226 24.1187 26.4686 23.68 26.9067L20 30.5853V18C20 17.8232 20.0702 17.6536 20.1952 17.5286C20.3203 17.4036 20.4898 17.3333 20.6666 17.3333Z" fill="#FDFDFD"/>
</svg>
