<svg width="56" height="56" viewBox="0 0 56 56" fill="none" xmlns="http://www.w3.org/2000/svg">
<rect width="56" height="56" rx="16" fill="#0A0D12"/>
<rect x="0.5" y="0.5" width="55" height="55" rx="15.5" stroke="#A4A7AE" stroke-opacity="0.2"/>
<path d="M42 28C42 31.713 40.525 35.274 37.8995 37.8995C35.274 40.525 31.713 42 28 42C24.287 42 20.726 40.525 18.1005 37.8995C15.475 35.274 14 31.713 14 28C14 27.7348 14.1054 27.4804 14.2929 27.2929C14.4804 27.1053 14.7348 27 15 27C15.2652 27 15.5196 27.1053 15.7071 27.2929C15.8946 27.4804 16 27.7348 16 28C15.9959 30.678 16.8864 33.2807 18.5301 35.395C20.1739 37.5092 22.4767 39.0138 25.0731 39.6701C27.6695 40.3263 30.4107 40.0965 32.8616 39.0172C35.3125 37.9378 37.3327 36.0708 38.6015 33.7124C39.8703 31.354 40.3151 28.6394 39.8652 25.9994C39.4153 23.3594 38.0965 20.9453 36.1181 19.1404C34.1397 17.3354 31.6152 16.2429 28.9451 16.0363C26.275 15.8297 23.6125 16.5208 21.38 18H22C22.2652 18 22.5196 18.1053 22.7071 18.2929C22.8946 18.4804 23 18.7348 23 19C23 19.2652 22.8946 19.5196 22.7071 19.7071C22.5196 19.8946 22.2652 20 22 20H19C18.7348 20 18.4804 19.8946 18.2929 19.7071C18.1054 19.5196 18 19.2652 18 19V16C18 15.7348 18.1054 15.4804 18.2929 15.2929C18.4804 15.1053 18.7348 15 19 15C19.2652 15 19.5196 15.1053 19.7071 15.2929C19.8946 15.4804 20 15.7348 20 16V16.514C22.0988 15.0513 24.5583 14.1918 27.1113 14.0288C29.6644 13.8658 32.2132 14.4057 34.481 15.5896C36.7487 16.7736 38.6486 18.5564 39.9742 20.7444C41.2998 22.9324 42.0005 25.4418 42 28ZM37 28C37 29.78 36.4722 31.5201 35.4832 33.0001C34.4943 34.4802 33.0887 35.6337 31.4442 36.3149C29.7996 36.9961 27.99 37.1743 26.2442 36.8271C24.4984 36.4798 22.8947 35.6226 21.636 34.364C20.3774 33.1053 19.5202 31.5016 19.1729 29.7558C18.8257 28.01 19.0039 26.2004 19.6851 24.5558C20.3663 22.9113 21.5198 21.5057 22.9999 20.5168C24.4799 19.5278 26.22 19 28 19C30.3861 19.0026 32.6738 19.9517 34.361 21.639C36.0483 23.3262 36.9974 25.6139 37 28ZM31.555 29.168L29 27.465V23C29 22.7348 28.8946 22.4804 28.7071 22.2929C28.5196 22.1053 28.2652 22 28 22C27.7348 22 27.4804 22.1053 27.2929 22.2929C27.1054 22.4804 27 22.7348 27 23V28C27 28.1646 27.0406 28.3266 27.1182 28.4718C27.1958 28.6169 27.3081 28.7406 27.445 28.832L30.445 30.832C30.6657 30.9792 30.9358 31.0327 31.1959 30.9807C31.456 30.9288 31.6848 30.7757 31.832 30.555C31.9792 30.3343 32.0327 30.0642 31.9808 29.8041C31.9288 29.544 31.7757 29.3152 31.555 29.168Z" fill="#FDFDFD"/>
</svg>
