<svg xmlns="http://www.w3.org/2000/svg" width="136" height="136" fill="none" viewBox="0 0 136 136">
    <g clip-path="url(#a)">
        <path fill="#F5F5F5" d="M133.25 73.931c0 44.489-29.214 59.319-65.25 59.319-36.037 0-65.25-14.83-65.25-59.319C2.75 32.41 31.963 2.751 68 2.751c36.036 0 65.25 29.659 65.25 71.18Z"/>
        <path fill="#CFD8DC" d="M68 2.75c-1.132 0-2.257.03-3.376.088 34.468 1.8 61.876 30.877 61.876 71.1 0 43.085-27.408 58.351-61.876 59.267 1.119.029 2.244.045 3.376.045 36.036 0 65.25-14.83 65.25-59.319 0-41.521-29.214-71.18-65.25-71.18Z"/>
        <path fill="#607D8B" d="M92.75 50h-49.5c-17.397 0-31.5 14.103-31.5 31.5S25.853 113 43.25 113h49.5c17.397 0 31.5-14.103 31.5-31.5S110.147 50 92.75 50Z"/>
        <path fill="#37474F" d="M92.75 50H86c17.397 0 31.5 14.103 31.5 31.5S103.397 113 86 113h6.75c17.397 0 31.5-14.103 31.5-31.5S110.147 50 92.75 50Z"/>
        <path fill="#02A9F4" d="M16.25 11.75a4.5 4.5 0 1 0 0-9 4.5 4.5 0 0 0 0 9Zm103.5 0a4.5 4.5 0 1 0 0-9 4.5 4.5 0 0 0 0 9Z"/>
        <path fill="#424242" d="M43.25 47.75C24.611 47.75 9.5 62.861 9.5 81.5s15.111 33.75 33.75 33.75h49.5c18.639 0 33.75-15.111 33.75-33.75s-15.111-33.75-33.75-33.75h-49.5ZM122 81.5c-.018 16.146-13.104 29.232-29.25 29.25h-49.5C27.095 110.75 14 97.655 14 81.5s13.095-29.25 29.25-29.25h49.5c16.146.018 29.232 13.104 29.25 29.25ZM61.25 43.25h13.5a2.25 2.25 0 0 0 0-4.5h-13.5a2.25 2.25 0 1 0 0 4.5Zm4.5-6.75h4.5a2.25 2.25 0 0 0 0-4.5h-4.5a2.25 2.25 0 1 0 0 4.5Z"/>
        <path fill="#424242" d="M122 13.586a6.752 6.752 0 0 0 4.402-7.506A6.746 6.746 0 0 0 119.75.472a6.748 6.748 0 0 0-5.823 10.165 6.75 6.75 0 0 0 3.573 2.949v9.45A64.608 64.608 0 0 0 68 .5a64.6 64.6 0 0 0-49.5 22.527v-9.45a6.75 6.75 0 1 0-4.5 0v15.228A78.606 78.606 0 0 0 .5 73.93c0 40.28 23.34 61.57 67.5 61.57 44.158 0 67.5-21.29 67.5-61.57A78.611 78.611 0 0 0 122 28.815V13.586ZM119.75 5a2.251 2.251 0 0 1 1.591 3.84 2.251 2.251 0 0 1-3.841-1.59A2.25 2.25 0 0 1 119.75 5ZM16.25 5a2.25 2.25 0 1 1 0 4.5 2.25 2.25 0 0 1 0-4.5ZM68 131c-28.74 0-63-9.9-63-57.07C5 34.636 32.085 5 68 5c35.914 0 63 29.635 63 68.93C131 121.1 96.739 131 68 131Z"/>
        <path stroke="#0A0D12" stroke-linecap="round" stroke-linejoin="round" stroke-miterlimit="10" stroke-width="6.308" d="m31 62 12.86 12.86M31 74.94l12.86-12.86M105 62 92.14 74.86m12.86.08L92.14 62.08m-47.264 40.854c12.076-13.984 33.752-13.984 45.827 0"/>
    </g>
    <defs>
        <clipPath id="a">
            <path fill="#fff" d="M.5.5h135v135H.5z"/>
        </clipPath>
    </defs>
</svg>
