<svg xmlns="http://www.w3.org/2000/svg" width="40" height="40" fill="none" viewBox="0 0 40 40">
    <rect width="40" height="40" fill="#0A0D12" rx="11.429"/>
    <rect width="39.286" height="39.286" x=".357" y=".357" stroke="#A4A7AE" stroke-opacity=".2" stroke-width=".714" rx="11.071"/>
    <path fill="#FDFDFD" d="M30 20a10 10 0 0 1-20 0 .715.715 0 0 1 1.429 0 8.584 8.584 0 1 0 3.842-7.143h.443a.714.714 0 1 1 0 1.429h-2.143a.714.714 0 0 1-.714-.714v-2.143a.714.714 0 0 1 1.429 0v.367A9.999 9.999 0 0 1 30 20Zm-3.571 0A6.429 6.429 0 1 1 20 13.572 6.436 6.436 0 0 1 26.429 20Zm-3.89.834-1.825-1.216v-3.19a.715.715 0 0 0-1.428 0V20a.715.715 0 0 0 .318.595l2.142 1.428a.715.715 0 0 0 .793-1.189Z"/>
</svg>
