<svg xmlns="http://www.w3.org/2000/svg" width="68" height="68" fill="none" viewBox="0 0 68 68">
    <g clip-path="url(#a)">
        <path fill="#F5F5F5" d="M53.128 20.703c10.168 12.117 5.6 22.833-4.215 31.07-9.816 8.235-21.162 10.873-31.33-1.245-9.49-11.31-8.31-26.064 1.504-34.3 9.816-8.236 24.551-6.834 34.04 4.475Z"/>
        <path fill="#CFD8DC" d="M19.087 16.228a23.03 23.03 0 0 0-.899.795c9.8-7.387 23.91-5.731 33.103 5.224 9.847 11.736 5.87 22.157-3.308 30.284.311-.247.621-.5.93-.759 9.815-8.236 14.383-18.952 4.215-31.07-9.49-11.309-24.226-12.71-34.04-4.474Z"/>
        <path fill="#607D8B" d="M36.627 23.44 23.145 34.755c-4.738 3.976-5.357 11.04-1.38 15.779 3.976 4.738 11.04 5.356 15.778 1.38L51.026 40.6c4.738-3.976 5.356-11.04 1.38-15.779-3.976-4.738-11.04-5.356-15.779-1.38Z"/>
        <path fill="#37474F" d="m36.627 23.44-1.838 1.543c4.738-3.976 11.803-3.358 15.779 1.381 3.976 4.738 3.358 11.803-1.38 15.779l1.838-1.543c4.738-3.976 5.356-11.04 1.38-15.779-3.976-4.738-11.04-5.356-15.779-1.38Z"/>
        <path fill="#02A9F4" d="M7.05 30.506a1.6 1.6 0 1 0-2.058-2.45 1.6 1.6 0 0 0 2.057 2.45ZM35.24 6.852A1.6 1.6 0 1 0 33.182 4.4a1.6 1.6 0 0 0 2.056 2.45Z"/>
        <path fill="#00BCD4" d="M29.02 45.49a3.2 3.2 0 1 0-4.114-4.904 3.2 3.2 0 0 0 4.114 4.903Zm17.16-14.4a3.2 3.2 0 1 0-4.114-4.902 3.2 3.2 0 0 0 4.113 4.903ZM36.177 41.572l4.903-4.113a.8.8 0 0 1 1.127.098 4 4 0 0 1-6.129 5.142.8.8 0 0 1 .099-1.127Z"/>
        <path fill="#424242" d="M22.63 34.141c-5.076 4.26-5.738 11.83-1.478 16.906 4.26 5.077 11.829 5.739 16.906 1.48L51.54 41.212c5.077-4.26 5.739-11.83 1.48-16.906-4.26-5.077-11.83-5.739-16.907-1.479L22.631 34.141Zm29.164-8.805c3.685 4.401 3.111 10.956-1.282 14.651L37.029 51.3c-4.4 3.693-10.96 3.119-14.652-1.281-3.692-4.4-3.118-10.96 1.282-14.652l13.483-11.313c4.401-3.686 10.956-3.112 14.651 1.282Zm-25.289 3.466 3.677-3.086a.8.8 0 1 0-1.028-1.226l-3.677 3.086a.8.8 0 0 0 1.028 1.226Zm-.317-2.867 1.226-1.029a.8.8 0 1 0-1.029-1.226l-1.225 1.03a.8.8 0 0 0 1.029 1.226Z"/>
        <path fill="#424242" d="M36.272 6.838a2.4 2.4 0 1 0-1.226 1.028l2.16 2.574a22.969 22.969 0 0 0-18.633 5.175 22.97 22.97 0 0 0-8.334 17.449L8.08 30.49a2.4 2.4 0 1 0-1.225 1.028l3.48 4.148a27.949 27.949 0 0 0 6.637 15.376c9.205 10.971 20.428 11.435 32.456 1.343 12.027-10.092 13.52-21.225 4.314-32.197a27.95 27.95 0 0 0-13.989-9.203l-3.48-4.147Zm-2.575-1.825a.8.8 0 1 1 1.028 1.226.8.8 0 0 1-1.028-1.226ZM5.507 28.668a.8.8 0 1 1 1.028 1.225.8.8 0 0 1-1.029-1.225Zm42.892 22.491c-7.828 6.569-19.423 11.702-30.203-1.145C9.216 39.31 9.82 25.049 19.602 16.84s23.932-6.327 32.913 4.376c10.78 12.848 3.711 23.374-4.117 29.942Z"/>
        <path fill="#424242" d="M24.392 39.974a4 4 0 1 0 5.141 6.127 4 4 0 0 0-5.141-6.127Zm4.114 4.902A2.4 2.4 0 1 1 25.42 41.2a2.4 2.4 0 0 1 3.086 3.676ZM41.058 31.21a4 4 0 1 0 6.129-5.142 4 4 0 0 0-6.129 5.142Zm1.522-4.41a2.4 2.4 0 1 1 3.085 3.677A2.4 2.4 0 0 1 42.58 26.8Zm-2.015 10.046-4.902 4.114a1.6 1.6 0 0 0-.198 2.254 4.8 4.8 0 1 0 7.354-6.171 1.6 1.6 0 0 0-2.254-.197Zm.634 5.734a3.2 3.2 0 0 1-4.508-.395l4.903-4.114a3.2 3.2 0 0 1-.395 4.509Z"/>
    </g>
    <defs>
        <clipPath id="a">
            <path fill="#fff" d="M.188 31.042 36.958.188l30.854 36.77-36.77 30.854z"/>
        </clipPath>
    </defs>
</svg>
