<svg xmlns="http://www.w3.org/2000/svg" width="64" height="64" fill="none" viewBox="0 0 64 64">
    <g clip-path="url(#a)">
        <path fill="#F5F5F5" d="M55.2 34.109C55.2 49.927 44.813 55.2 32 55.2c-12.813 0-23.2-5.273-23.2-21.091C8.8 19.346 19.187 8.8 32 8.8c12.813 0 23.2 10.546 23.2 25.309Z"/>
        <path fill="#CFD8DC" d="M32 8.8c-.402 0-.802.01-1.2.031 12.255.64 22 10.979 22 25.28 0 15.32-9.745 20.747-22 21.073.398.01.798.016 1.2.016 12.813 0 23.2-5.273 23.2-21.091C55.2 19.346 44.813 8.8 32 8.8Z"/>
        <path fill="#607D8B" d="M40.8 25.6H23.2c-6.186 0-11.2 5.014-11.2 11.2C12 42.986 17.014 48 23.2 48h17.6C46.986 48 52 42.986 52 36.8c0-6.186-5.014-11.2-11.2-11.2Z"/>
        <path fill="#37474F" d="M40.8 25.6h-2.4c6.186 0 11.2 5.014 11.2 11.2 0 6.186-5.014 11.2-11.2 11.2h2.4C46.986 48 52 42.986 52 36.8c0-6.186-5.014-11.2-11.2-11.2Z"/>
        <path fill="#02A9F4" d="M13.6 12a1.6 1.6 0 1 0 0-3.2 1.6 1.6 0 0 0 0 3.2Zm36.8 0a1.6 1.6 0 1 0 0-3.2 1.6 1.6 0 0 0 0 3.2Z"/>
        <path fill="#00BCD4" d="M20.8 37.6a3.2 3.2 0 1 0 0-6.4 3.2 3.2 0 0 0 0 6.4Zm22.4 0a3.2 3.2 0 1 0 0-6.4 3.2 3.2 0 0 0 0 6.4Zm-14.4 1.6h6.4a.8.8 0 0 1 .8.8 4 4 0 1 1-8 0 .8.8 0 0 1 .8-.8Z"/>
        <path fill="#424242" d="M23.2 24.8c-6.627 0-12 5.373-12 12s5.373 12 12 12h17.6c6.627 0 12-5.373 12-12s-5.373-12-12-12H23.2Zm28 12c-.006 5.74-4.66 10.394-10.4 10.4H23.2c-5.744 0-10.4-4.656-10.4-10.4 0-5.744 4.656-10.4 10.4-10.4h17.6c5.74.006 10.394 4.66 10.4 10.4ZM29.6 23.2h4.8a.8.8 0 0 0 0-1.6h-4.8a.8.8 0 1 0 0 1.6Zm1.6-2.4h1.6a.8.8 0 0 0 0-1.6h-1.6a.8.8 0 1 0 0 1.6Z"/>
        <path fill="#424242" d="M51.2 12.653a2.4 2.4 0 1 0-1.6 0v3.36A22.968 22.968 0 0 0 32 8a22.97 22.97 0 0 0-17.6 8.01v-3.36a2.4 2.4 0 1 0-1.6 0v5.414A27.949 27.949 0 0 0 8 34.109C8 48.43 16.3 56 32 56s24-7.57 24-21.891a27.949 27.949 0 0 0-4.8-16.042v-5.414ZM50.4 9.6a.8.8 0 1 1 0 1.6.8.8 0 0 1 0-1.6Zm-36.8 0a.8.8 0 1 1 0 1.6.8.8 0 0 1 0-1.6ZM32 54.4c-10.218 0-22.4-3.52-22.4-20.291C9.6 20.137 19.23 9.6 32 9.6c12.77 0 22.4 10.537 22.4 24.509C54.4 50.88 42.218 54.4 32 54.4Z"/>
        <path fill="#424242" d="M20.8 30.4a4 4 0 1 0 0 8 4 4 0 0 0 0-8Zm0 6.4a2.4 2.4 0 1 1 0-4.8 2.4 2.4 0 0 1 0 4.8Zm18.4-2.4a4 4 0 1 0 8 0 4 4 0 0 0-8 0Zm4-2.4a2.4 2.4 0 1 1 0 4.8 2.4 2.4 0 0 1 0-4.8Zm-8 6.4h-6.4a1.6 1.6 0 0 0-1.6 1.6 4.8 4.8 0 0 0 9.6 0 1.6 1.6 0 0 0-1.6-1.6ZM32 43.2a3.2 3.2 0 0 1-3.2-3.2h6.4a3.2 3.2 0 0 1-3.2 3.2Z"/>
    </g>
    <defs>
        <clipPath id="a">
            <path fill="#fff" d="M8 8h48v48H8z"/>
        </clipPath>
    </defs>
</svg>
