<svg xmlns="http://www.w3.org/2000/svg" width="68" height="68" fill="none" viewBox="0 0 68 68">
    <g clip-path="url(#a)">
        <path fill="#F5F5F5" d="M50.417 50.528c-10.168 12.118-21.515 9.48-31.33 1.244-9.815-8.236-14.383-18.952-4.215-31.07 9.49-11.309 24.225-12.71 34.04-4.474 9.816 8.236 10.994 22.99 1.505 34.3Z"/>
        <path fill="#CFD8DC" d="M48.913 16.228a22.908 22.908 0 0 0-.94-.748c8.977 8.368 9.796 22.552.604 33.507-9.847 11.735-20.801 9.63-30.399 2.002.298.263.6.525.91.783 9.814 8.236 21.16 10.874 31.329-1.244 9.49-11.31 8.31-26.064-1.505-34.3Z"/>
        <path fill="#607D8B" d="M44.855 34.754 31.373 23.44c-4.739-3.976-11.803-3.358-15.78 1.38-3.975 4.739-3.357 11.803 1.381 15.78l13.482 11.312c4.739 3.976 11.803 3.358 15.78-1.38 3.975-4.739 3.357-11.803-1.381-15.78Z"/>
        <path fill="#37474F" d="m44.855 34.754-1.838-1.543c4.738 3.976 5.356 11.04 1.38 15.779-3.976 4.738-11.04 5.356-15.779 1.38l1.838 1.543c4.739 3.976 11.803 3.358 15.78-1.38 3.976-4.739 3.357-11.803-1.381-15.78Z"/>
        <path fill="#02A9F4" d="M32.76 6.852A1.6 1.6 0 1 0 34.817 4.4a1.6 1.6 0 0 0-2.057 2.452Zm28.19 23.654a1.6 1.6 0 1 0 2.058-2.45 1.6 1.6 0 0 0-2.057 2.45Z"/>
        <path fill="#00BCD4" d="M21.82 31.09a3.2 3.2 0 1 0 4.114-4.902 3.2 3.2 0 0 0-4.113 4.903Zm17.16 14.4a3.2 3.2 0 1 0 4.114-4.903 3.2 3.2 0 0 0-4.114 4.902Zm-12.06-8.031 4.903 4.113a.8.8 0 0 1 .099 1.127 4 4 0 0 1-6.129-5.142.8.8 0 0 1 1.128-.098Z"/>
        <path fill="#424242" d="M31.887 22.828c-5.077-4.26-12.646-3.598-16.906 1.479-4.26 5.077-3.598 12.646 1.479 16.906l13.482 11.313c5.077 4.26 12.646 3.598 16.906-1.479 4.26-5.077 3.598-12.646-1.479-16.906L31.887 22.828Zm13.736 27.19c-3.695 4.394-10.25 4.968-14.652 1.282L17.488 39.987c-4.4-3.692-4.974-10.251-1.282-14.652 3.693-4.4 10.252-4.974 14.652-1.281l13.483 11.313c4.393 3.695 4.967 10.25 1.282 14.652Zm-7.805-24.302 3.677 3.085a.8.8 0 1 0 1.028-1.225l-3.677-3.086a.8.8 0 0 0-1.028 1.226Zm2.768-.81 1.226 1.029a.8.8 0 0 0 1.028-1.226l-1.225-1.029a.8.8 0 0 0-1.029 1.226Z"/>
        <path fill="#424242" d="M61.144 31.52a2.4 2.4 0 1 0-1.226-1.028l-2.16 2.574a22.97 22.97 0 0 0-8.331-17.451 22.97 22.97 0 0 0-18.631-5.178l2.16-2.573a2.4 2.4 0 1 0-1.226-1.029l-3.48 4.148a27.948 27.948 0 0 0-13.99 9.206c-9.206 10.97-7.715 22.104 4.313 32.196 12.027 10.092 23.25 9.628 32.456-1.343a27.95 27.95 0 0 0 6.635-15.374l3.48-4.147Zm1.35-2.852a.8.8 0 1 1-1.029 1.225.8.8 0 0 1 1.029-1.225ZM34.304 5.013a.8.8 0 1 1-1.029 1.226.8.8 0 0 1 1.028-1.226ZM19.6 51.16c-7.827-6.568-14.896-17.095-4.116-29.942 8.981-10.703 23.131-12.585 32.913-4.376 9.782 8.208 10.387 22.47 1.406 33.173-10.78 12.847-22.375 7.714-30.203 1.145Z"/>
        <path fill="#424242" d="M26.449 25.575a4 4 0 1 0-5.143 6.128 4 4 0 0 0 5.143-6.128Zm-4.114 4.903A2.4 2.4 0 1 1 25.42 26.8a2.4 2.4 0 0 1-3.086 3.678Zm15.638 9.989a4 4 0 1 0 6.127 5.142 4 4 0 0 0-6.127-5.142Zm4.607.732a2.4 2.4 0 1 1-3.086 3.677A2.4 2.4 0 0 1 42.58 41.2Zm-10.243-.24-4.902-4.113a1.6 1.6 0 0 0-2.254.197 4.8 4.8 0 1 0 7.354 6.17 1.6 1.6 0 0 0-.198-2.253Zm-5.536 1.62a3.2 3.2 0 0 1-.395-4.508l4.903 4.114a3.2 3.2 0 0 1-4.508.395Z"/>
    </g>
    <defs>
        <clipPath id="a">
            <path fill="#fff" d="m31.042.188 36.77 30.853-30.854 36.77L.188 36.959z"/>
        </clipPath>
    </defs>
</svg>
