<svg xmlns="http://www.w3.org/2000/svg" width="64" height="64" fill="none" viewBox="0 0 64 64">
    <g clip-path="url(#a)">
        <path fill="#F5F5F5" d="M54.522 26.047c5.41 14.864-2.547 23.372-14.587 27.754-12.04 4.382-23.604 2.98-29.015-11.885C5.871 28.044 12.025 14.581 24.065 10.2c12.04-4.382 25.408 1.975 30.457 15.848Z"/>
        <path fill="#CFD8DC" d="M24.065 10.2c-.378.137-.75.283-1.117.439 11.735-3.59 24.428 2.792 29.32 16.23 5.24 14.396-2.062 22.83-13.466 27.327.377-.126.755-.258 1.133-.395 12.04-4.382 19.997-12.89 14.587-27.754-5.05-13.873-18.417-20.23-30.457-15.848Z"/>
        <path fill="#607D8B" d="m38.08 22.976-16.538 6.02c-5.813 2.115-8.81 8.542-6.694 14.355 2.115 5.813 8.542 8.81 14.355 6.694l16.539-6.02c5.812-2.115 8.81-8.542 6.694-14.355-2.116-5.812-8.543-8.81-14.356-6.694Z"/>
        <path fill="#37474F" d="m38.08 22.976-2.255.821c5.813-2.116 12.24.881 14.355 6.694 2.116 5.813-.881 12.24-6.694 14.355l2.256-.82c5.812-2.116 8.81-8.543 6.694-14.356-2.116-5.812-8.543-8.81-14.356-6.694Z"/>
        <path fill="#02A9F4" d="M7.87 19.5a1.6 1.6 0 1 0-1.095-3.008A1.6 1.6 0 0 0 7.869 19.5ZM42.45 6.913a1.6 1.6 0 1 0-1.095-3.007 1.6 1.6 0 0 0 1.095 3.007Z"/>
        <path fill="#00BCD4" d="M23.39 41.093a3.2 3.2 0 1 0-2.188-6.014 3.2 3.2 0 0 0 2.189 6.014Zm21.05-7.661a3.2 3.2 0 1 0-2.189-6.014 3.2 3.2 0 0 0 2.189 6.014ZM31.456 39.86l6.013-2.189a.8.8 0 0 1 1.026.479 4 4 0 0 1-7.518 2.736.8.8 0 0 1 .479-1.026Z"/>
        <path fill="#424242" d="M21.268 28.244c-6.227 2.267-9.439 9.153-7.172 15.38 2.267 6.228 9.153 9.44 15.38 7.173l16.54-6.02c6.227-2.267 9.438-9.153 7.171-15.38-2.266-6.228-9.153-9.44-15.38-7.173l-16.539 6.02Zm30.416 1.7c1.957 5.396-.824 11.36-6.216 13.33l-16.539 6.02c-5.397 1.964-11.365-.82-13.33-6.217-1.964-5.397.819-11.365 6.216-13.33l16.539-6.02c5.397-1.957 11.36.824 13.33 6.217Zm-24.949-5.392 4.51-1.642a.8.8 0 0 0-.547-1.504l-4.51 1.642a.8.8 0 0 0 .547 1.504Zm.683-2.803 1.503-.547a.8.8 0 1 0-.547-1.504l-1.504.547a.8.8 0 0 0 .548 1.504Z"/>
        <path fill="#424242" d="M43.425 7.253a2.4 2.4 0 1 0-1.504.547l1.15 3.157a22.969 22.969 0 0 0-19.28-1.51A22.97 22.97 0 0 0 9.992 22.994l-1.149-3.158a2.4 2.4 0 1 0-1.503.547l1.851 5.088a27.949 27.949 0 0 0 .978 16.72c4.898 13.457 15.285 17.732 30.04 12.362 14.753-5.37 19.963-15.322 15.065-28.78a27.948 27.948 0 0 0-9.997-13.432l-1.852-5.088Zm-1.796-2.595a.8.8 0 1 1 .547 1.503.8.8 0 0 1-.547-1.503ZM7.05 17.244a.8.8 0 1 1 .547 1.503.8.8 0 0 1-.548-1.503ZM39.66 53.05c-9.602 3.495-22.253 4.354-27.989-11.406-4.779-13.13.667-26.325 12.667-30.692 12-4.368 24.653 2.24 29.431 15.37 5.736 15.76-4.507 23.233-14.109 26.728Z"/>
        <path fill="#424242" d="M20.928 34.327a4 4 0 1 0 2.736 7.517 4 4 0 0 0-2.736-7.517Zm2.19 6.014a2.4 2.4 0 1 1-1.643-4.51 2.4 2.4 0 0 1 1.642 4.51Zm16.469-8.548a4 4 0 1 0 7.518-2.737 4 4 0 0 0-7.518 2.737Zm2.938-3.624a2.4 2.4 0 1 1 1.641 4.51 2.4 2.4 0 0 1-1.641-4.51Zm-5.33 8.75-6.013 2.19a1.6 1.6 0 0 0-.956 2.05 4.8 4.8 0 1 0 9.02-3.283 1.6 1.6 0 0 0-2.05-.956Zm-1.364 5.606a3.2 3.2 0 0 1-4.102-1.913l6.014-2.189a3.2 3.2 0 0 1-1.912 4.102Z"/>
    </g>
    <defs>
        <clipPath id="a">
            <path fill="#fff" d="M1.239 17.656 46.344 1.239l16.417 45.105-45.105 16.417z"/>
        </clipPath>
    </defs>
</svg>
