<svg xmlns="http://www.w3.org/2000/svg" width="64" height="64" fill="none" viewBox="0 0 64 64">
    <g clip-path="url(#a)">
        <path fill="#F5F5F5" d="M53.08 41.916c-5.41 14.865-16.975 16.267-29.015 11.885S4.068 40.91 9.478 26.047c5.05-13.873 18.417-20.23 30.457-15.848S58.129 28.044 53.08 41.917Z"/>
        <path fill="#CFD8DC" d="M39.935 10.2a22.927 22.927 0 0 0-1.138-.382c11.297 4.793 16.918 17.84 12.027 31.28-5.24 14.395-16.253 16.163-27.881 12.277.37.146.744.288 1.122.426 12.04 4.382 23.604 2.98 29.015-11.885 5.049-13.872-1.105-27.335-13.145-31.717Z"/>
        <path fill="#607D8B" d="m42.458 28.996-16.538-6.02c-5.813-2.115-12.24.882-14.356 6.694-2.115 5.813.882 12.24 6.694 14.355l16.539 6.02c5.813 2.115 12.24-.882 14.355-6.694 2.116-5.813-.881-12.24-6.694-14.355Z"/>
        <path fill="#37474F" d="m42.458 28.996-2.255-.821c5.813 2.116 8.81 8.543 6.694 14.355-2.116 5.813-8.543 8.81-14.355 6.694l2.255.82c5.813 2.117 12.24-.88 14.355-6.693 2.116-5.813-.881-12.24-6.694-14.355Z"/>
        <path fill="#02A9F4" d="M21.55 6.913a1.6 1.6 0 1 0 1.094-3.007 1.6 1.6 0 0 0-1.094 3.007ZM56.13 19.5a1.6 1.6 0 1 0 1.095-3.008 1.6 1.6 0 0 0-1.094 3.007Z"/>
        <path fill="#00BCD4" d="M19.56 33.432a3.2 3.2 0 1 0 2.19-6.014 3.2 3.2 0 0 0-2.19 6.014Zm21.05 7.661a3.2 3.2 0 1 0 2.188-6.014 3.2 3.2 0 0 0-2.189 6.014Zm-14.08-3.422 6.014 2.19a.8.8 0 0 1 .479 1.025 4 4 0 1 1-7.518-2.736.8.8 0 0 1 1.025-.479Z"/>
        <path fill="#424242" d="M26.193 22.224c-6.227-2.266-13.114.945-15.38 7.172-2.267 6.228.944 13.114 7.172 15.381l16.538 6.02c6.228 2.266 13.114-.945 15.38-7.172 2.268-6.228-.944-13.114-7.171-15.381l-16.539-6.02ZM48.4 43.078c-1.97 5.393-7.933 8.174-13.33 6.216l-16.538-6.02c-5.398-1.964-8.18-7.932-6.216-13.33 1.965-5.397 7.932-8.18 13.33-6.215l16.539 6.02c5.392 1.969 8.173 7.933 6.215 13.33ZM32.755 22.91l4.51 1.642a.8.8 0 0 0 .547-1.504l-4.51-1.642a.8.8 0 1 0-.547 1.504Zm2.324-1.708 1.503.547a.8.8 0 0 0 .548-1.503l-1.504-.548a.8.8 0 0 0-.547 1.504Z"/>
        <path fill="#424242" d="M56.66 20.386a2.4 2.4 0 1 0-1.504-.547l-1.15 3.158A22.97 22.97 0 0 0 40.21 9.447a22.969 22.969 0 0 0-19.279 1.507l1.15-3.157a2.4 2.4 0 1 0-1.504-.547l-1.852 5.088a27.949 27.949 0 0 0-9.998 13.435c-4.898 13.458.312 23.41 15.065 28.78 14.754 5.37 25.142 1.095 30.04-12.363a27.948 27.948 0 0 0 .976-16.716l1.852-5.088Zm.292-3.142a.8.8 0 1 1-.547 1.503.8.8 0 0 1 .547-1.503ZM22.37 4.658a.8.8 0 1 1-.547 1.504.8.8 0 0 1 .547-1.504Zm1.968 48.391C14.737 49.554 4.494 42.08 10.229 26.32c4.78-13.129 17.433-19.737 29.432-15.37 12 4.368 17.446 17.564 12.667 30.693-5.736 15.76-18.387 14.901-27.99 11.406Z"/>
        <path fill="#424242" d="M22.023 26.666a4 4 0 1 0-2.737 7.517 4 4 0 0 0 2.737-7.517Zm-2.19 6.014a2.4 2.4 0 1 1 1.642-4.51 2.4 2.4 0 0 1-1.641 4.51Zm18.112 4.038a4 4 0 1 0 7.518 2.736 4 4 0 0 0-7.518-2.736Zm4.58-.887a2.4 2.4 0 1 1-1.642 4.51 2.4 2.4 0 0 1 1.642-4.51Zm-9.707 3.277-6.014-2.188a1.6 1.6 0 0 0-2.05.956 4.8 4.8 0 0 0 9.02 3.283 1.6 1.6 0 0 0-.956-2.05Zm-4.649 3.417a3.2 3.2 0 0 1-1.912-4.102l6.014 2.189a3.2 3.2 0 0 1-4.102 1.913Z"/>
    </g>
    <defs>
        <clipPath id="a">
            <path fill="#fff" d="M17.656 1.239 62.76 17.656 46.344 62.76 1.24 46.344z"/>
        </clipPath>
    </defs>
</svg>
