<svg xmlns="http://www.w3.org/2000/svg" width="56" height="56" fill="none" viewBox="0 0 56 56">
    <rect width="55" height="55" x=".5" y=".5" fill="#EDEF5D" rx="27.5"/>
    <rect width="55" height="55" x=".5" y=".5" stroke="#0A0D12" rx="27.5"/>
    <path fill="#000" fill-rule="evenodd" d="M36.022 22.058a.772.772 0 0 0-.487-.148h-.303c.2-.165.338-.278.425-.365.122-.104.234-.252.347-.434.122-.208.191-.434.191-.686 0-.165-.035-.32-.095-.468a1.352 1.352 0 0 0-.252-.4 1.485 1.485 0 0 0-.382-.278 1.736 1.736 0 0 0-.73-.139 1.575 1.575 0 0 0-1.093.409c-.12.12-.218.26-.287.416-.06.157-.095.304-.095.46 0 .226.095.374.173.452a.61.61 0 0 0 .434.173.61.61 0 0 0 .47-.208c.069-.087.13-.2.182-.339.026-.069.034-.104.043-.121.052-.07.095-.087.156-.087.035 0 .061.009.087.017.026.01.035.026.052.044a.131.131 0 0 1 .018.07.238.238 0 0 1-.035.12.704.704 0 0 1-.122.175c-.06.069-.147.138-.252.208-.086.06-.208.156-.381.321a10.6 10.6 0 0 0-.556.547 1.154 1.154 0 0 0-.2.304.911.911 0 0 0-.095.356c0 .182.07.338.2.469.13.13.303.19.512.19h1.64c.191 0 .356-.06.478-.182a.604.604 0 0 0 .174-.425.553.553 0 0 0-.217-.451Zm-22.39 5.938c0-4.41 1.719-8.56 4.844-11.686a.811.811 0 0 0 0-1.154.802.802 0 0 0-.573-.243.822.822 0 0 0-.581.243 18.056 18.056 0 0 0-3.994 6.007A18.032 18.032 0 0 0 12 27.996a18.2 18.2 0 0 0 1.328 6.832 17.968 17.968 0 0 0 3.994 6.007.802.802 0 0 0 .573.243.787.787 0 0 0 .573-.243.81.81 0 0 0 0-1.154 16.452 16.452 0 0 1-4.836-11.685Zm29.04-6.833a18.057 18.057 0 0 0-3.994-6.007.802.802 0 0 0-.573-.243.787.787 0 0 0-.573.243.813.813 0 0 0 0 1.154 16.418 16.418 0 0 1 4.845 11.686c0 4.41-1.72 8.568-4.845 11.694a.813.813 0 0 0 0 1.154.802.802 0 0 0 .573.243.787.787 0 0 0 .573-.243 18.058 18.058 0 0 0 3.994-6.007A18.032 18.032 0 0 0 44 28.004a17.91 17.91 0 0 0-1.328-6.84Z" clip-rule="evenodd"/>
    <path fill="#000" fill-rule="evenodd" d="M35.249 23.959H23.833a.826.826 0 0 0-.799.625l-2.352 9.992-1.815-1.814a.802.802 0 0 0-.573-.243.822.822 0 0 0-.76 1.133.82.82 0 0 0 .178.264l2.848 2.848a.802.802 0 0 0 .573.243.855.855 0 0 0 .799-.625l2.543-10.791H35.24a.815.815 0 0 0 .816-.816.808.808 0 0 0-.807-.816Z" clip-rule="evenodd"/>
    <path fill="#000" fill-rule="evenodd" d="M32.306 33.178 30.7 31.216l1.606-1.962a.813.813 0 0 0-.625-1.328.824.824 0 0 0-.634.304l-1.398 1.71-1.397-1.71a.811.811 0 1 0-1.26 1.024l1.607 1.962-1.606 1.962a.824.824 0 0 0-.182.6c.026.217.13.416.295.546a.804.804 0 0 0 .512.183.824.824 0 0 0 .634-.304l1.397-1.71 1.398 1.71a.811.811 0 0 0 1.146.121.802.802 0 0 0 .295-.546.824.824 0 0 0-.182-.6Z" clip-rule="evenodd"/>
</svg>
