<svg width="32" height="32" viewBox="0 0 32 32" fill="none" xmlns="http://www.w3.org/2000/svg">
<g clip-path="url(#clip0_24_206)">
<path d="M13.6972 26.0888C14.1705 26.0888 14.5915 25.7521 14.6812 25.2699C14.7824 24.7259 14.4234 24.2028 13.8793 24.1015C10.6949 23.5092 8.02372 21.3849 6.73392 18.4191C5.52735 15.6451 5.66895 12.5298 7.1223 9.87203C7.38782 9.38648 7.20941 8.77764 6.72386 8.51211C6.23831 8.24653 5.62946 8.425 5.36394 8.91055C3.61151 12.1155 3.44098 15.8725 4.89619 19.2183C6.45196 22.7955 9.6731 25.3575 13.513 26.0718C13.5748 26.0833 13.6364 26.0888 13.6972 26.0888Z" fill="#FBAC5B"/>
<path d="M4.26373 16.7583C5.01087 16.7583 5.56479 16.64 5.62546 16.6266C5.72428 16.6043 5.81322 16.5506 5.87904 16.4736C5.94485 16.3966 5.984 16.3003 5.99066 16.1992C5.99235 16.1716 6.0309 15.517 5.88674 14.7048C5.68964 13.5943 5.24002 12.712 4.58631 12.1535C3.93266 11.595 2.99111 11.2884 1.86334 11.267C1.81941 11.2662 1.77592 11.2659 1.73317 11.2659C0.985599 11.2659 0.431682 11.3841 0.370941 11.3976C0.272139 11.4199 0.183208 11.4736 0.117407 11.5506C0.0516062 11.6277 0.0124612 11.7239 0.00580874 11.825C0.00412149 11.8526 -0.0344352 12.5072 0.109668 13.3194C0.306701 14.4299 0.756446 15.3122 1.41016 15.8708C2.06375 16.4293 3.00536 16.7358 4.13306 16.7572C4.17737 16.758 4.22092 16.7583 4.26373 16.7583ZM10.6807 29.1695C11.5594 29.1695 12.3321 28.9611 12.9152 28.5666C13.6274 28.085 14.1732 27.2587 14.4936 26.1772C14.7234 25.4016 14.761 24.7728 14.7645 24.7036C14.7748 24.4971 14.6453 24.3056 14.4494 24.2382C14.3842 24.2158 13.7877 24.0167 12.9812 23.9412C12.7914 23.9232 12.6008 23.914 12.4101 23.9138C11.5316 23.9138 10.7591 24.1222 10.176 24.5166C9.46376 24.9984 8.91797 25.8246 8.59758 26.9061C8.36774 27.6817 8.33018 28.3105 8.32662 28.3797C8.31625 28.5863 8.44579 28.7777 8.64163 28.8451C8.70687 28.8675 9.30335 29.0666 10.1099 29.1421C10.3036 29.1603 10.4957 29.1695 10.6807 29.1695ZM5.28014 23.7857C5.95704 23.7857 6.67906 23.5916 7.42601 23.2089C8.14665 22.8397 8.62701 22.4333 8.67938 22.3882C8.83617 22.2531 8.88535 22.0272 8.79892 21.839C8.78743 21.8139 8.51203 21.2192 8.00073 20.5714C7.30196 19.686 6.48865 19.1212 5.64852 18.9381C5.43424 18.8914 5.2079 18.8678 4.97594 18.8678C4.29898 18.8678 3.57702 19.0619 2.83001 19.4446C2.10943 19.8139 1.629 20.2203 1.57664 20.2654C1.41985 20.4004 1.37067 20.6264 1.45715 20.8146C1.46865 20.8397 1.74398 21.4344 2.25535 22.0822C2.95412 22.9676 3.76743 23.5323 4.60755 23.7154C4.64024 23.7225 4.67317 23.7291 4.70648 23.7352L4.70704 23.7352C4.89145 23.7687 5.0838 23.7857 5.28014 23.7857ZM6.83622 9.85901C6.9189 9.8589 7.00008 9.83691 7.07151 9.79527C7.14295 9.75363 7.20208 9.69382 7.24291 9.62192C7.25647 9.59792 7.57798 9.02613 7.8042 8.23306C8.11359 7.14848 8.0959 6.15838 7.75302 5.36987C7.41007 4.58143 6.69787 3.89334 5.69352 3.38004C4.95863 3.00447 4.32185 2.85006 4.2951 2.84369C4.25928 2.83509 4.22258 2.83073 4.18574 2.83069C4.1031 2.83082 4.02196 2.85283 3.95058 2.89448C3.87921 2.93614 3.82013 2.99595 3.77937 3.06784C3.76574 3.0919 3.44423 3.66363 3.21801 4.45676C2.90862 5.54141 2.92637 6.53151 3.26919 7.31995C3.61214 8.1084 4.32435 8.79642 5.32863 9.30978C6.06352 9.68528 6.70036 9.83982 6.72717 9.84613C6.7629 9.85464 6.79949 9.85896 6.83622 9.85901Z" fill="#FDDB8D"/>
<path d="M18.3028 26.0888C17.8294 26.0888 17.4085 25.7521 17.3188 25.2699C17.2176 24.7259 17.5766 24.2028 18.1206 24.1015C21.305 23.5092 23.9763 21.3849 25.2661 18.4191C26.4726 15.6451 26.331 12.5298 24.8778 9.87203C24.6122 9.38648 24.7906 8.77764 25.2762 8.51211C25.7617 8.24653 26.3706 8.425 26.6361 8.91055C28.3885 12.1155 28.5591 15.8725 27.1039 19.2183C25.5481 22.7955 22.3269 25.3575 18.4872 26.0718C18.4252 26.0833 18.3635 26.0888 18.3028 26.0888Z" fill="#FD8F32"/>
<path d="M27.7363 16.7583C26.9891 16.7583 26.4352 16.64 26.3745 16.6266C26.2757 16.6043 26.1868 16.5506 26.121 16.4736C26.0551 16.3966 26.016 16.3003 26.0093 16.1992C26.0076 16.1716 25.9691 15.517 26.1133 14.7048C26.3104 13.5943 26.7599 12.712 27.4137 12.1535C28.0673 11.595 29.0089 11.2884 30.1367 11.267C30.1806 11.2662 30.2241 11.2659 30.2668 11.2659C31.0143 11.2659 31.5683 11.3841 31.629 11.3976C31.7278 11.4199 31.8167 11.4736 31.8825 11.5506C31.9483 11.6277 31.9875 11.7239 31.9941 11.825C31.9958 11.8526 32.0344 12.5072 31.8903 13.3194C31.6932 14.4299 31.2435 15.3122 30.5898 15.8708C29.9362 16.4293 28.9946 16.7358 27.8669 16.7572C27.8226 16.758 27.7791 16.7583 27.7363 16.7583ZM21.3193 29.1695C20.4405 29.1695 19.6679 28.9611 19.0848 28.5666C18.3726 28.085 17.8268 27.2587 17.5064 26.1772C17.2766 25.4016 17.239 24.7728 17.2355 24.7036C17.2251 24.4971 17.3546 24.3056 17.5505 24.2382C17.6157 24.2158 18.2123 24.0167 19.0187 23.9412C19.2086 23.9232 19.3992 23.914 19.5899 23.9138C20.4684 23.9138 21.2409 24.1222 21.824 24.5166C22.5362 24.9984 23.082 25.8246 23.4024 26.9061C23.6322 27.6817 23.6698 28.3105 23.6732 28.3797C23.6836 28.5863 23.5541 28.7777 23.3582 28.8451C23.293 28.8675 22.6965 29.0666 21.89 29.1421C21.7003 29.1601 21.5099 29.1692 21.3193 29.1695ZM26.7199 23.7857C26.043 23.7857 25.3209 23.5916 24.574 23.2089C23.8533 22.8397 23.373 22.4333 23.3206 22.3882C23.1639 22.2531 23.1146 22.0272 23.2011 21.839C23.2126 21.8139 23.488 21.2192 23.9993 20.5714C24.6981 19.686 25.5114 19.1212 26.3515 18.9381C26.5658 18.8914 26.7922 18.8678 27.0241 18.8678C27.7011 18.8678 28.423 19.0619 29.17 19.4446C29.8906 19.8139 30.3711 20.2203 30.4234 20.2654C30.5802 20.4004 30.6294 20.6264 30.5429 20.8146C30.5314 20.8397 30.2561 21.4344 29.7447 22.0822C29.0459 22.9676 28.2326 23.5323 27.3925 23.7154C27.3596 23.7226 27.3267 23.7292 27.2936 23.7352L27.293 23.7352C27.1039 23.7692 26.912 23.7861 26.7199 23.7857ZM25.1638 9.85901C25.0811 9.8589 24.9999 9.83691 24.9285 9.79527C24.857 9.75363 24.7979 9.69382 24.7571 9.62192C24.7435 9.59792 24.422 9.02613 24.1958 8.23306C23.8864 7.14848 23.9042 6.15838 24.247 5.36987C24.59 4.58143 25.3022 3.89334 26.3065 3.38004C27.0414 3.00447 27.6782 2.85006 27.705 2.84369C27.7408 2.83509 27.7775 2.83073 27.8143 2.83069C27.897 2.83082 27.9781 2.85283 28.0495 2.89448C28.1209 2.93614 28.1799 2.99595 28.2207 3.06784C28.2343 3.0919 28.5558 3.66363 28.782 4.45676C29.0914 5.54141 29.0737 6.53151 28.7309 7.31995C28.3879 8.1084 27.6757 8.79642 26.6714 9.30978C25.9365 9.68528 25.2997 9.83982 25.2729 9.84613C25.2371 9.85463 25.2005 9.85895 25.1638 9.85901Z" fill="#FBAC5B"/>
<path d="M16.0124 11.8119C15.4947 11.8119 15.075 11.3922 15.075 10.8745V9.84166C15.075 9.32398 15.4947 8.9043 16.0124 8.9043C16.5301 8.9043 16.9498 9.32398 16.9498 9.84166V10.8745C16.9498 11.3922 16.5301 11.8119 16.0124 11.8119ZM9.80321 13.3713C9.36046 13.3713 8.96658 13.0562 8.88272 12.6052L8.6805 11.5178C8.58583 11.0088 8.92171 10.5195 9.43064 10.4248C9.93981 10.3303 10.4289 10.666 10.5236 11.175L10.7258 12.2624C10.8205 12.7713 10.4846 13.2606 9.97568 13.3553C9.91775 13.3661 9.86007 13.3713 9.80321 13.3713ZM22.2172 13.401C22.1603 13.401 22.1027 13.3958 22.0447 13.3851C21.5358 13.2904 21.1999 12.8011 21.2946 12.2921L21.4968 11.2047C21.5915 10.6957 22.0807 10.3601 22.5898 10.4546C23.0988 10.5492 23.4346 11.0385 23.3399 11.5475L23.1377 12.6349C23.0538 13.0859 22.66 13.401 22.2172 13.401Z" fill="#FD8F32"/>
<path d="M21.0293 19.7758H10.9955C10.7766 19.7758 10.5646 19.6992 10.3963 19.5593C10.228 19.4194 10.1139 19.225 10.0739 19.0098L8.88266 12.6052C8.84844 12.4213 8.87001 12.2314 8.94459 12.0599C9.01918 11.8884 9.14337 11.7431 9.3012 11.6427C9.45903 11.5424 9.64327 11.4915 9.83023 11.4967C10.0172 11.5019 10.1983 11.563 10.3503 11.672L13.5359 13.9554L15.1633 10.4772C15.2389 10.3158 15.3589 10.1792 15.5092 10.0836C15.6596 9.98794 15.8341 9.93713 16.0123 9.93713C16.1906 9.93713 16.3651 9.98794 16.5154 10.0836C16.6658 10.1792 16.7858 10.3158 16.8613 10.4772L18.4887 13.9554L21.6743 11.672C21.8263 11.563 22.0074 11.502 22.1944 11.4968C22.3813 11.4916 22.5655 11.5425 22.7234 11.6428C22.8812 11.7432 23.0054 11.8884 23.08 12.0599C23.1546 12.2314 23.1762 12.4213 23.142 12.6052L21.9507 19.0098C21.9107 19.225 21.7967 19.4194 21.6284 19.5593C21.4601 19.6992 21.2482 19.7758 21.0293 19.7758Z" fill="#FDDB8D"/>
<path d="M22.7235 11.6428C22.5657 11.5424 22.3815 11.4915 22.1945 11.4967C22.0076 11.5019 21.8264 11.5629 21.6744 11.6719L18.4888 13.9553L16.8615 10.4771C16.7859 10.3157 16.666 10.1791 16.5156 10.0835C16.3652 9.98783 16.1907 9.93702 16.0125 9.93701V19.7758H21.0294C21.2483 19.7758 21.4602 19.6992 21.6286 19.5593C21.7969 19.4194 21.9109 19.225 21.9509 19.0098L23.1422 12.6052C23.1764 12.4213 23.1548 12.2314 23.0802 12.0599C23.0055 11.8884 22.8813 11.7431 22.7235 11.6428Z" fill="#FBAC5B"/>
<path d="M21.6542 19.7758H10.3706C9.85289 19.7758 9.4332 19.3562 9.4332 18.8385C9.4332 18.3208 9.85289 17.9011 10.3706 17.9011H21.6542C22.1719 17.9011 22.5916 18.3208 22.5916 18.8385C22.5916 19.3562 22.1719 19.7758 21.6542 19.7758Z" fill="#FBAC5B"/>
<path d="M21.6542 17.9011H16.0124V19.7758H21.6542C22.1719 19.7758 22.5916 19.3562 22.5916 18.8385C22.5916 18.3208 22.1719 17.9011 21.6542 17.9011Z" fill="#FD8F32"/>
</g>
<defs>
<clipPath id="clip0_24_206">
<rect width="32" height="32" fill="white"/>
</clipPath>
</defs>
</svg>
