<svg xmlns="http://www.w3.org/2000/svg" width="157" height="52" fill="none" viewBox="0 0 157 52">
    <rect width="155" height="50" x="1" y="1" fill="#000" rx="7"/>
    <rect width="155" height="50" x="1" y="1" stroke="#EDEF5D" stroke-width="2" rx="7"/>
    <g clip-path="url(#a)">
        <path fill="#FBAC5B" d="M29.697 36.089a1.002 1.002 0 0 0 .182-1.987 9.718 9.718 0 0 1-7.145-5.683 9.665 9.665 0 0 1 .388-8.547 1.002 1.002 0 0 0-1.758-.961 11.655 11.655 0 0 0-.468 10.307 11.72 11.72 0 0 0 8.617 6.854c.062.011.123.017.184.017Z"/>
        <path fill="#FDDB8D" d="M20.264 26.758c.747 0 1.3-.118 1.361-.131a.47.47 0 0 0 .366-.428c.001-.027.04-.682-.104-1.494-.197-1.11-.647-1.993-1.3-2.551-.654-.559-1.596-.866-2.724-.887a7.162 7.162 0 0 0-1.492.13.47.47 0 0 0-.365.428 6.93 6.93 0 0 0 .104 1.494c.197 1.11.646 1.993 1.3 2.552.654.558 1.595.865 2.723.886l.13.001ZM26.68 39.17c.878 0 1.651-.209 2.234-.603.712-.482 1.258-1.308 1.579-2.39.23-.775.267-1.404.27-1.473a.47.47 0 0 0-.314-.466 6.832 6.832 0 0 0-2.04-.324c-.878 0-1.65.208-2.234.603-.712.481-1.258 1.308-1.578 2.39a6.854 6.854 0 0 0-.271 1.473.47.47 0 0 0 .315.465 6.829 6.829 0 0 0 2.039.325Zm-5.4-5.384c.676 0 1.398-.194 2.145-.577a6.832 6.832 0 0 0 1.253-.82.47.47 0 0 0 .12-.55A6.937 6.937 0 0 0 24 30.571c-.699-.885-1.512-1.45-2.353-1.633a3.165 3.165 0 0 0-.672-.07c-.677 0-1.399.194-2.146.577a6.844 6.844 0 0 0-1.253.82.47.47 0 0 0-.12.55c.012.025.287.62.798 1.267.7.886 1.512 1.45 2.353 1.633l.098.02h.001c.184.034.377.05.573.05Zm1.555-13.927a.469.469 0 0 0 .407-.237c.014-.024.335-.596.561-1.389.31-1.085.292-2.075-.051-2.863-.343-.789-1.055-1.477-2.06-1.99a6.938 6.938 0 0 0-1.398-.536.468.468 0 0 0-.516.224 6.943 6.943 0 0 0-.561 1.389c-.31 1.084-.292 2.075.051 2.863.343.788 1.055 1.476 2.06 1.99a6.93 6.93 0 0 0 1.398.536.47.47 0 0 0 .11.013Z"/>
        <path fill="#FD8F32" d="M34.303 36.089a1.002 1.002 0 0 1-.182-1.987 9.718 9.718 0 0 0 7.145-5.683 9.664 9.664 0 0 0-.388-8.547 1.002 1.002 0 0 1 1.758-.961 11.655 11.655 0 0 1 .468 10.307 11.72 11.72 0 0 1-8.617 6.854 1.01 1.01 0 0 1-.184.017Z"/>
        <path fill="#FBAC5B" d="M43.736 26.758a6.778 6.778 0 0 1-1.361-.131.47.47 0 0 1-.366-.428c-.001-.027-.04-.682.104-1.494.197-1.11.647-1.993 1.3-2.551.654-.559 1.596-.866 2.724-.887a7.144 7.144 0 0 1 1.492.13.47.47 0 0 1 .365.428c.002.028.04.682-.104 1.494-.197 1.11-.647 1.993-1.3 2.552-.654.558-1.595.865-2.723.886l-.13.001ZM37.32 39.17c-.878 0-1.651-.209-2.234-.603-.712-.482-1.258-1.308-1.579-2.39a6.843 6.843 0 0 1-.27-1.473.47.47 0 0 1 .315-.466 6.83 6.83 0 0 1 2.039-.324c.878 0 1.65.208 2.234.603.712.481 1.258 1.308 1.578 2.39a6.79 6.79 0 0 1 .271 1.473.47.47 0 0 1-.315.465 6.829 6.829 0 0 1-2.039.325Zm5.4-5.384c-.676 0-1.398-.194-2.145-.577a6.836 6.836 0 0 1-1.253-.82.47.47 0 0 1-.12-.55c.012-.025.287-.62.798-1.268.7-.885 1.512-1.45 2.352-1.633.215-.047.441-.07.673-.07.677 0 1.399.194 2.146.577.72.369 1.201.775 1.253.82a.47.47 0 0 1 .12.55 6.93 6.93 0 0 1-.798 1.267c-.7.886-1.512 1.45-2.352 1.633a3.202 3.202 0 0 1-.673.07Zm-1.555-13.927a.469.469 0 0 1-.407-.237 6.945 6.945 0 0 1-.561-1.389c-.31-1.085-.292-2.075.051-2.863.343-.789 1.055-1.477 2.06-1.99a6.938 6.938 0 0 1 1.398-.536.468.468 0 0 1 .516.224c.013.024.335.596.561 1.389.31 1.084.292 2.075-.051 2.863-.343.788-1.055 1.476-2.06 1.99a6.93 6.93 0 0 1-1.398.536.472.472 0 0 1-.11.013Z"/>
        <path fill="#FD8F32" d="M32.012 21.812a.937.937 0 0 1-.937-.938v-1.032a.937.937 0 1 1 1.875 0v1.033c0 .517-.42.937-.938.937Zm-6.209 1.56a.938.938 0 0 1-.92-.767l-.203-1.087a.937.937 0 0 1 1.844-.343l.202 1.087a.937.937 0 0 1-.923 1.11Zm12.414.029a.937.937 0 0 1-.923-1.109l.203-1.087a.937.937 0 0 1 1.843.343l-.202 1.087a.938.938 0 0 1-.92.766Z"/>
        <path fill="#FDDB8D" d="M37.03 29.776H26.994a.937.937 0 0 1-.921-.766l-1.191-6.405a.937.937 0 0 1 1.467-.933l3.186 2.283 1.627-3.478a.937.937 0 0 1 1.698 0l1.628 3.478 3.185-2.283a.937.937 0 0 1 1.468.933L37.95 29.01a.937.937 0 0 1-.922.766Z"/>
        <path fill="#FBAC5B" d="M38.724 21.643a.937.937 0 0 0-1.05.029l-3.185 2.283-1.627-3.478a.937.937 0 0 0-.85-.54v9.839h5.017a.937.937 0 0 0 .922-.766l1.191-6.405a.937.937 0 0 0-.419-.962Z"/>
        <path fill="#FBAC5B" d="M37.654 29.776H26.371a.937.937 0 1 1 0-1.875h11.283a.937.937 0 0 1 0 1.875Z"/>
        <path fill="#FD8F32" d="M37.654 27.901h-5.642v1.875h5.642a.937.937 0 0 0 0-1.875Z"/>
    </g>
    <path fill="#FDFDFD" d="M58.98 32.68c-.507 0-.893-.14-1.16-.42-.267-.28-.4-.673-.4-1.18v-11.1c0-.52.133-.913.4-1.18.28-.267.673-.4 1.18-.4h4.86c1.573 0 2.787.4 3.64 1.2.853.787 1.28 1.887 1.28 3.3 0 1.413-.427 2.52-1.28 3.32-.853.8-2.067 1.2-3.64 1.2h-3.34v3.66c0 .507-.133.9-.4 1.18-.253.28-.633.42-1.14.42Zm1.54-7.66h2.82c.8 0 1.407-.18 1.82-.54.427-.36.64-.887.64-1.58 0-.693-.213-1.213-.64-1.56-.413-.347-1.02-.52-1.82-.52h-2.82v4.2Zm11.286 7.66c-.507 0-.893-.133-1.16-.4-.267-.267-.4-.647-.4-1.14v-7.1c0-.493.127-.867.38-1.12.267-.267.633-.4 1.1-.4.48 0 .847.133 1.1.4.253.253.38.627.38 1.12v1.04h-.2c.16-.8.513-1.42 1.06-1.86.547-.44 1.253-.687 2.12-.74.333-.027.587.06.76.26.187.187.287.5.3.94.027.413-.06.74-.26.98-.187.24-.507.387-.96.44l-.46.04c-.76.067-1.327.287-1.7.66-.36.373-.54.913-.54 1.62v3.72c0 .493-.133.873-.4 1.14-.253.267-.627.4-1.12.4Zm11.606.04c-1.16 0-2.16-.207-3-.62-.826-.427-1.466-1.02-1.92-1.78-.44-.773-.66-1.68-.66-2.72 0-1.013.214-1.9.64-2.66a4.534 4.534 0 0 1 1.78-1.8c.774-.44 1.647-.66 2.62-.66.707 0 1.347.12 1.92.36.574.227 1.067.56 1.48 1 .414.427.727.953.94 1.58.214.613.32 1.3.32 2.06 0 .253-.08.447-.24.58-.16.12-.393.18-.7.18h-6.28v-1.56h5.04l-.32.28c0-.547-.08-1-.24-1.36-.16-.373-.393-.653-.7-.84-.293-.187-.66-.28-1.1-.28-.493 0-.913.113-1.26.34-.346.227-.613.553-.8.98-.186.427-.28.94-.28 1.54v.16c0 1.013.234 1.76.7 2.24.48.48 1.187.72 2.12.72.32 0 .687-.04 1.1-.12.414-.08.8-.207 1.16-.38.307-.147.58-.193.82-.14.24.04.427.147.56.32.134.173.207.373.22.6.027.227-.02.453-.14.68-.12.213-.32.393-.6.54-.453.253-.966.44-1.54.56a7.07 7.07 0 0 1-1.64.2Zm7.437-.04c-.493 0-.873-.133-1.14-.4-.253-.267-.38-.647-.38-1.14v-7.1c0-.493.127-.867.38-1.12.267-.267.633-.4 1.1-.4.48 0 .847.133 1.1.4.253.253.38.627.38 1.12v1.28l-.22-.8a3.35 3.35 0 0 1 1.24-1.48c.56-.373 1.22-.56 1.98-.56s1.393.18 1.9.54c.507.36.867.913 1.08 1.66h-.28c.293-.68.74-1.213 1.34-1.6.613-.4 1.313-.6 2.1-.6.76 0 1.38.153 1.86.46.493.293.86.747 1.1 1.36.24.6.36 1.367.36 2.3v4.54c0 .493-.133.873-.4 1.14-.253.267-.62.4-1.1.4-.493 0-.873-.133-1.14-.4-.253-.267-.38-.647-.38-1.14V26.7c0-.653-.107-1.127-.32-1.42-.2-.307-.547-.46-1.04-.46-.573 0-1.02.2-1.34.6-.32.4-.48.967-.48 1.7v4.02c0 .493-.133.873-.4 1.14-.253.267-.62.4-1.1.4-.48 0-.853-.133-1.12-.4-.267-.267-.4-.647-.4-1.14V26.7c0-.653-.107-1.127-.32-1.42-.2-.307-.547-.46-1.04-.46-.573 0-1.02.2-1.34.6-.32.4-.48.967-.48 1.7v4.02c0 1.027-.5 1.54-1.5 1.54Zm17.733-.02c-.493 0-.873-.14-1.14-.42-.253-.293-.38-.7-.38-1.22v-6.84c0-.533.127-.94.38-1.22.267-.293.647-.44 1.14-.44.48 0 .847.147 1.1.44.267.28.4.687.4 1.22v6.84c0 .52-.126.927-.38 1.22-.253.28-.626.42-1.12.42Zm0-11.78c-.56 0-.993-.127-1.3-.38-.293-.267-.44-.64-.44-1.12 0-.493.147-.867.44-1.12.307-.267.74-.4 1.3-.4s.987.133 1.28.4c.294.253.44.627.44 1.12 0 .48-.146.853-.44 1.12-.293.253-.72.38-1.28.38Zm7.452 11.84c-.827 0-1.513-.153-2.06-.46-.547-.307-.953-.767-1.22-1.38-.253-.627-.38-1.4-.38-2.32v-4.52c0-.507.127-.887.38-1.14.267-.253.64-.38 1.12-.38.48 0 .853.127 1.12.38.267.253.4.633.4 1.14v4.6c0 .587.12 1.027.36 1.32.24.28.62.42 1.14.42.573 0 1.04-.2 1.4-.6.373-.413.56-.953.56-1.62v-4.12c0-.507.127-.887.38-1.14.267-.253.64-.38 1.12-.38.493 0 .867.127 1.12.38.267.253.4.633.4 1.14v7.1c0 1.027-.487 1.54-1.46 1.54-.48 0-.847-.133-1.1-.4-.253-.267-.38-.647-.38-1.14V29.8l.3.78c-.293.68-.713 1.207-1.26 1.58s-1.193.56-1.94.56Zm9.737-.04c-.494 0-.874-.133-1.14-.4-.254-.267-.38-.647-.38-1.14v-7.1c0-.493.126-.867.38-1.12.266-.267.633-.4 1.1-.4.48 0 .846.133 1.1.4.253.253.38.627.38 1.12v1.28l-.22-.8a3.346 3.346 0 0 1 1.24-1.48c.56-.373 1.22-.56 1.98-.56s1.393.18 1.9.54c.506.36.866.913 1.08 1.66h-.28c.293-.68.74-1.213 1.34-1.6.613-.4 1.313-.6 2.1-.6.76 0 1.38.153 1.86.46.493.293.86.747 1.1 1.36.24.6.36 1.367.36 2.3v4.54c0 .493-.134.873-.4 1.14-.254.267-.62.4-1.1.4-.494 0-.874-.133-1.14-.4-.254-.267-.38-.647-.38-1.14V26.7c0-.653-.107-1.127-.32-1.42-.2-.307-.547-.46-1.04-.46-.574 0-1.02.2-1.34.6-.32.4-.48.967-.48 1.7v4.02c0 .493-.134.873-.4 1.14-.254.267-.62.4-1.1.4-.48 0-.854-.133-1.12-.4-.267-.267-.4-.647-.4-1.14V26.7c0-.653-.107-1.127-.32-1.42-.2-.307-.547-.46-1.04-.46-.574 0-1.02.2-1.34.6-.32.4-.48.967-.48 1.7v4.02c0 1.027-.5 1.54-1.5 1.54Z"/>
    <defs>
        <clipPath id="a">
            <path fill="#fff" d="M16 10h32v32H16z"/>
        </clipPath>
    </defs>
</svg>
