<svg xmlns="http://www.w3.org/2000/svg" width="24" height="24" fill="none" viewBox="0 0 24 24">
    <path fill="#A4A7AE" d="M11.161 1.034 6.535.604a.654.654 0 0 0-.647.958l.551 1.102c-3.163 1.894-5.297 5.369-5.297 9.324 0 4.89 3.236 9.012 7.67 10.378.36.12.743-.168.743-.551v-1.366a.549.549 0 0 0-.36-.528c-3.26-1.15-5.608-4.29-5.608-7.933a8.439 8.439 0 0 1 3.955-7.142l.551 1.102c.24.455.887.48 1.15.048l2.397-3.979a.638.638 0 0 0-.479-.983Zm11.697 10.954c0-4.89-3.236-9.012-7.67-10.378-.36-.12-.743.168-.743.551v1.366c0 .24.144.456.36.528 3.26 1.15 5.608 4.29 5.608 7.933a8.439 8.439 0 0 1-3.955 7.142l-.551-1.102c-.24-.455-.887-.48-1.15-.048l-2.397 3.98c-.264.407.024.959.503 1.007l4.626.43a.653.653 0 0 0 .647-.958l-.551-1.102c3.14-1.918 5.273-5.393 5.273-9.348Z"/>
</svg>
