<svg xmlns="http://www.w3.org/2000/svg" width="24" height="25" fill="none" viewBox="0 0 24 25">
    <path fill="#D5D7DA" d="m15.113 14.056 1.406-1.443 1.5-1.538-4.013-.619a.298.298 0 0 1-.225-.168L12 6.5l-1.781 3.787c-.038.094-.131.15-.225.17l-4.013.618 2.7 2.756.225.225a.279.279 0 0 1 .075.263L8.287 18.5l3.563-1.969a.354.354 0 0 1 .15-.037c.056 0 .094.018.15.037l3.563 1.969-.675-4.181a.232.232 0 0 1 .075-.263Z"/>
    <path fill="#D5D7DA" d="m19.875 10.512-1.556-3.337-1.444 3.112 1.819.282a.306.306 0 0 1 .244.206c0 .019.018.056.018.075 0 .075-.018.169-.093.225l-1.05 1.069-2.157 2.212.431 2.644 2.12-.919c.037-.018.074-.018.13-.018.057 0 .113.018.15.037l3.113 1.725-.6-3.694a.336.336 0 0 1 .075-.262l2.55-2.644-3.506-.544a.33.33 0 0 1-.244-.168ZM8.344 14.356l-.225-.243-2.981-3.038a.346.346 0 0 1-.094-.225c0-.019 0-.056.019-.075a.306.306 0 0 1 .243-.206l1.819-.282-1.444-3.093-1.556 3.318c-.037.094-.131.15-.225.17l-3.525.543 2.55 2.644A.279.279 0 0 1 3 14.13l-.525 3.3L5.55 16.1a.32.32 0 0 1 .263 0l2.1 1.012.43-2.756Z"/>
</svg>
