<svg xmlns="http://www.w3.org/2000/svg" width="40" height="40" fill="none" viewBox="0 0 40 40">
    <rect width="40" height="40" fill="#0A0D12" rx="11.429"/>
    <rect width="39.286" height="39.286" x=".357" y=".357" stroke="#A4A7AE" stroke-opacity=".2" stroke-width=".714" rx="11.071"/>
    <g clip-path="url(#a)">
        <path fill="#FDFDFD" d="M30.759 17.031h-2.54a.67.67 0 1 0 0 1.34h.595v3.928a.67.67 0 0 0 1.34 0v-3.928h.605a.67.67 0 0 0 0-1.34Zm-14.625 1.34a.67.67 0 0 0 0-1.34h-1.938c-.37 0-.67.3-.67.67v4.598c0 .37.3.67.67.67h1.938a.67.67 0 0 0 0-1.34h-1.268v-.96h1.125a.67.67 0 1 0 0-1.339h-1.125v-.96h1.268Zm9.678 0a.67.67 0 0 0 0-1.34h-1.938c-.37 0-.67.3-.67.67v4.598c0 .37.3.67.67.67h1.938a.67.67 0 0 0 0-1.34h-1.268v-.96h1.125a.67.67 0 1 0 0-1.339h-1.125v-.96h1.268Zm-14.085 4.598a.67.67 0 0 0 .503-1.112l-1.074-1.22c.725-.27 1.24-.948 1.24-1.74 0-1.03-.866-1.866-1.932-1.866H9.241c-.37 0-.67.3-.67.67v4.598a.67.67 0 0 0 1.34 0v-1.05l1.313 1.493a.67.67 0 0 0 .503.227Zm-1.263-3.547-.547.001-.003-1.052h.55c.322 0 .593.24.593.525 0 .285-.271.526-.593.526Zm.807-5.75a.67.67 0 0 0 .943-.09A10.064 10.064 0 0 1 20 9.912c2.511 0 4.895.924 6.733 2.576h-.996a.67.67 0 0 0 0 1.339h2.565a.676.676 0 0 0 .426-.153.677.677 0 0 0 .244-.518v-2.563a.67.67 0 1 0-1.34 0v.902A11.39 11.39 0 0 0 20 8.572a11.4 11.4 0 0 0-8.819 4.158.67.67 0 0 0 .09.943Zm8.764 7.957c-.427.001-.845-.172-1.106-.461a.669.669 0 1 0-.993.899c.519.573 1.288.902 2.1.902 1.014 0 1.867-.652 2.028-1.549.12-.678-.183-1.564-1.398-2.012a20.953 20.953 0 0 1-1.234-.498.223.223 0 0 1-.07-.205c.01-.063.057-.217.3-.29.115-.035.229-.047.338-.043.462.017.836.314.84.318.361.184.783.055.953-.246.133-.235.097-.55-.095-.783a2.533 2.533 0 0 0-2.422-.529c-.67.202-1.145.732-1.24 1.383a1.556 1.556 0 0 0 .695 1.54c.03.02.06.036.093.05.024.011.546.244 1.176.484l.203.076c.14.051.592.24.542.52-.038.214-.32.445-.71.445Zm8.592 4.698a.67.67 0 0 0-.943.09A10.063 10.063 0 0 1 20 30.09a10.058 10.058 0 0 1-6.835-2.575h.996a.67.67 0 0 0 0-1.34h-2.565a.675.675 0 0 0-.67.67v2.564a.67.67 0 1 0 1.34 0v-.902A11.394 11.394 0 0 0 20 31.428a11.398 11.398 0 0 0 8.717-4.158.67.67 0 0 0-.09-.943Z"/>
    </g>
    <defs>
        <clipPath id="a">
            <path fill="#fff" d="M8.571 8.572h22.857v22.857H8.571z"/>
        </clipPath>
    </defs>
</svg>
