<svg width="32" height="32" viewBox="0 0 32 32" fill="none" xmlns="http://www.w3.org/2000/svg">
<path d="M31.2896 13.2159L27.619 12.3132C27.398 11.617 27.1146 10.9423 26.7721 10.2972C27.3232 9.37981 28.4814 7.449 28.4814 7.449C28.589 7.26971 28.6336 7.0596 28.608 6.85208C28.5825 6.64456 28.4883 6.45154 28.3404 6.30369L25.6891 3.65231C25.5415 3.50405 25.3484 3.40958 25.1408 3.38402C24.9331 3.35845 24.7229 3.40328 24.5438 3.51131L21.6909 5.22062C21.0495 4.88113 20.3788 4.60014 19.6869 4.38106L18.7842 0.7105C18.7336 0.507628 18.6166 0.327495 18.4519 0.198752C18.2871 0.0700088 18.0841 4.90793e-05 17.875 0L14.125 0C13.6947 0 13.3193 0.293 13.2159 0.710437C13.2159 0.710437 12.5906 3.27231 12.3141 4.38013C11.5774 4.61325 10.8649 4.91678 10.1864 5.2865L7.22831 3.51131C6.85844 3.29156 6.38788 3.34838 6.083 3.65231L3.43162 6.30369C3.28378 6.45154 3.1896 6.64456 3.16405 6.85208C3.1385 7.0596 3.18305 7.26971 3.29063 7.449L5.11987 10.5041C4.8253 11.0853 4.57822 11.6894 4.38106 12.3104L0.7105 13.2159C0.507628 13.2664 0.32749 13.3834 0.198745 13.5481C0.0699992 13.7129 4.12387e-05 13.9159 0 14.125L0 17.875C0 18.3053 0.293 18.6807 0.710437 18.7841L4.38194 19.6868C4.60444 20.3927 4.89369 21.0784 5.24438 21.7367L3.60744 24.4649C3.49987 24.6442 3.45531 24.8543 3.48086 25.0619C3.50641 25.2694 3.60059 25.4624 3.74844 25.6103L6.39981 28.2616C6.70288 28.5647 7.17525 28.6223 7.54513 28.4026C7.54513 28.4026 9.38075 27.3022 10.2798 26.7638C10.9304 27.1106 11.6113 27.3972 12.3141 27.6198L13.2159 31.2895C13.3193 31.7071 13.6947 32 14.125 32H17.875C18.0841 32 18.2871 31.93 18.4518 31.8013C18.6166 31.6725 18.7335 31.4924 18.7841 31.2896L19.6859 27.6199C20.4057 27.392 21.1022 27.0961 21.766 26.7364C22.6898 27.2903 24.5437 28.4026 24.5437 28.4026C24.9126 28.6232 25.3851 28.5665 25.689 28.2616L28.3404 25.6103C28.4882 25.4624 28.5824 25.2694 28.608 25.0619C28.6335 24.8543 28.5889 24.6442 28.4814 24.4649L26.7959 21.657C27.1282 21.026 27.4036 20.3667 27.6189 19.6868L31.2895 18.7841C31.4924 18.7336 31.6725 18.6166 31.8013 18.4519C31.93 18.2871 32 18.0841 32 17.875V14.125C32 13.9159 31.93 13.7129 31.8013 13.5481C31.6725 13.3834 31.4924 13.2664 31.2896 13.2159ZM16 22.5625C12.3818 22.5625 9.4375 19.6182 9.4375 16C9.4375 12.3818 12.3818 9.4375 16 9.4375C19.6182 9.4375 22.5625 12.3818 22.5625 16C22.5625 19.6182 19.6182 22.5625 16 22.5625Z" fill="#EDEF5D"/>
</svg>
