<svg xmlns="http://www.w3.org/2000/svg" width="25" height="24" fill="none" viewBox="0 0 25 24">
    <path fill="#fff" d="M12.5 9.75a3.754 3.754 0 0 0-3.75 3.75 3.754 3.754 0 0 0 3.75 3.75 3.754 3.754 0 0 0 3.75-3.75 3.754 3.754 0 0 0-3.75-3.75Zm2.25 4.5a.75.75 0 0 1-.75-.75c0-.827-.673-1.5-1.5-1.5a.75.75 0 0 1 0-1.5c1.655 0 3 1.345 3 3a.75.75 0 0 1-.75.75Zm1.898-9-.42-1.682A.75.75 0 0 0 15.5 3h-6a.75.75 0 0 0-.727.568l-.42 1.682h8.295Z"/>
    <path fill="#fff" d="M21.5 6h-18C2.26 6 1.25 7.01 1.25 8.25v10.5C1.25 19.99 2.26 21 3.5 21h18c1.24 0 2.25-1.01 2.25-2.25V8.25C23.75 7.01 22.74 6 21.5 6ZM5 10.5A.75.75 0 1 1 5 9a.75.75 0 0 1 0 1.5Zm7.5 8.25a5.256 5.256 0 0 1-5.25-5.25 5.256 5.256 0 0 1 5.25-5.25 5.256 5.256 0 0 1 5.25 5.25 5.256 5.256 0 0 1-5.25 5.25Z"/>
</svg>
