<svg xmlns="http://www.w3.org/2000/svg" width="133" height="32" fill="none" viewBox="0 0 133 32">
    <rect width="132" height="31" x=".5" y=".5" fill="#E9EAEB" rx="7.5"/>
    <rect width="132" height="31" x=".5" y=".5" stroke="#D5D7DA" rx="7.5"/>
    <path fill="#0A0D12" d="M24 13.75a3.754 3.754 0 0 0-3.75 3.75A3.754 3.754 0 0 0 24 21.25a3.754 3.754 0 0 0 3.75-3.75A3.754 3.754 0 0 0 24 13.75Zm2.25 4.5a.75.75 0 0 1-.75-.75c0-.827-.673-1.5-1.5-1.5a.75.75 0 0 1 0-1.5c1.654 0 3 1.345 3 3a.75.75 0 0 1-.75.75Zm1.898-9-.42-1.682A.75.75 0 0 0 27 7h-6a.75.75 0 0 0-.727.568l-.42 1.682h8.294Z"/>
    <path fill="#0A0D12" d="M33 10H15c-1.24 0-2.25 1.01-2.25 2.25v10.5c0 1.24 1.01 2.25 2.25 2.25h18c1.24 0 2.25-1.01 2.25-2.25v-10.5c0-1.24-1.01-2.25-2.25-2.25Zm-16.5 4.5a.75.75 0 1 1 0-1.5.75.75 0 0 1 0 1.5Zm7.5 8.25a5.256 5.256 0 0 1-5.25-5.25A5.256 5.256 0 0 1 24 12.25a5.256 5.256 0 0 1 5.25 5.25A5.256 5.256 0 0 1 24 22.75Zm25.088-.606c-.491 0-.971-.037-1.44-.112a7.338 7.338 0 0 1-1.328-.336 5.526 5.526 0 0 1-1.12-.576.982.982 0 0 1-.336-.4.876.876 0 0 1-.048-.432.82.82 0 0 1 .192-.384.58.58 0 0 1 .352-.192c.138-.032.293.01.464.128.48.31.986.539 1.52.688a6.918 6.918 0 0 0 1.744.208c.906 0 1.573-.16 2-.48.437-.33.656-.757.656-1.28 0-.427-.155-.763-.464-1.008-.31-.256-.827-.459-1.552-.608l-1.712-.352c-1.014-.213-1.771-.565-2.272-1.056-.491-.49-.736-1.152-.736-1.984 0-.501.101-.96.304-1.376.213-.416.506-.773.88-1.072.373-.31.821-.544 1.344-.704a5.826 5.826 0 0 1 1.712-.24c.661 0 1.28.085 1.856.256.586.17 1.109.432 1.568.784a.66.66 0 0 1 .272.368.697.697 0 0 1 .032.416.617.617 0 0 1-.544.528c-.15.01-.315-.043-.496-.16a4.325 4.325 0 0 0-1.28-.592 4.945 4.945 0 0 0-1.424-.192c-.523 0-.982.08-1.376.24-.384.16-.683.384-.896.672-.203.288-.304.63-.304 1.024 0 .448.144.805.432 1.072.288.267.768.47 1.44.608l1.696.352c1.066.224 1.861.57 2.384 1.04.522.47.784 1.093.784 1.872 0 .501-.102.955-.304 1.36a3.044 3.044 0 0 1-.864 1.024 4.158 4.158 0 0 1-1.36.672 6.47 6.47 0 0 1-1.776.224Zm9.457 0c-.8 0-1.494-.165-2.08-.496a3.53 3.53 0 0 1-1.344-1.424c-.32-.619-.48-1.344-.48-2.176 0-.619.09-1.173.272-1.664.181-.501.437-.923.768-1.264a3.432 3.432 0 0 1 1.232-.784 4.443 4.443 0 0 1 1.632-.288c.373 0 .762.059 1.168.176.416.107.8.288 1.152.544a.528.528 0 0 1 .256.32c.042.117.048.24.016.368a.608.608 0 0 1-.176.336.573.573 0 0 1-.32.16.722.722 0 0 1-.416-.112 2.547 2.547 0 0 0-.784-.384 2.519 2.519 0 0 0-.768-.128c-.384 0-.726.064-1.024.192a1.911 1.911 0 0 0-.736.528 2.237 2.237 0 0 0-.464.848c-.096.341-.144.73-.144 1.168 0 .875.202 1.563.608 2.064.416.49 1.002.736 1.76.736.245 0 .501-.037.768-.112.266-.075.528-.203.784-.384a.628.628 0 0 1 .416-.096c.128.021.23.08.304.176a.574.574 0 0 1 .16.32.624.624 0 0 1-.016.368.601.601 0 0 1-.272.32 3.377 3.377 0 0 1-1.12.528c-.395.107-.779.16-1.152.16Zm6.462 0a3.314 3.314 0 0 1-1.472-.32 2.58 2.58 0 0 1-1.008-.864 2.148 2.148 0 0 1-.368-1.232c0-.576.144-1.03.432-1.36.299-.341.784-.581 1.456-.72.683-.15 1.6-.224 2.752-.224h.752v.992h-.736c-.768 0-1.376.037-1.824.112-.448.075-.768.203-.96.384-.181.17-.272.41-.272.72 0 .405.139.736.416.992.277.245.661.368 1.152.368.395 0 .741-.09 1.04-.272.299-.192.533-.448.704-.768a2.2 2.2 0 0 0 .272-1.104v-1.84c0-.608-.128-1.045-.384-1.312-.256-.267-.677-.4-1.264-.4-.341 0-.699.043-1.072.128-.363.085-.741.23-1.136.432-.181.085-.336.112-.464.08a.51.51 0 0 1-.304-.208.803.803 0 0 1-.128-.368c0-.139.032-.272.096-.4a.683.683 0 0 1 .368-.288c.47-.224.933-.384 1.392-.48a6.34 6.34 0 0 1 1.296-.144c.715 0 1.301.112 1.76.336.47.224.816.565 1.04 1.024.224.459.336 1.05.336 1.776v4.112c0 .256-.064.459-.192.608-.128.139-.315.208-.56.208-.235 0-.421-.07-.56-.208-.139-.15-.208-.352-.208-.608v-1.04h.144a2.394 2.394 0 0 1-.48 1.024c-.224.277-.507.49-.848.64-.341.15-.73.224-1.168.224Zm6.898-.032c-.256 0-.454-.07-.592-.208-.139-.15-.208-.352-.208-.608v-6.4c0-.267.07-.47.208-.608.138-.139.33-.208.576-.208.256 0 .448.07.576.208.138.139.208.341.208.608v1.248l-.176-.288c.234-.597.602-1.045 1.104-1.344.501-.31 1.077-.464 1.728-.464.618 0 1.13.117 1.536.352.416.224.725.57.928 1.04.202.459.304 1.04.304 1.744v4.112c0 .256-.07.459-.208.608-.139.139-.336.208-.592.208-.267 0-.47-.07-.608-.208-.139-.15-.208-.352-.208-.608V17.28c0-.672-.134-1.163-.4-1.472-.256-.31-.662-.464-1.216-.464-.65 0-1.174.203-1.568.608-.384.405-.576.95-.576 1.632v3.712c0 .544-.272.816-.816.816Zm13.613 0c-.245 0-.437-.07-.576-.208-.128-.139-.192-.33-.192-.576v-9.936c0-.256.07-.448.208-.576.139-.139.326-.208.56-.208.224 0 .395.043.512.128.128.075.246.213.352.416l4.192 7.824h-.496l4.176-7.824c.107-.203.219-.341.336-.416.118-.085.288-.128.512-.128.235 0 .416.07.544.208.128.128.192.32.192.576v9.936c0 .245-.064.437-.192.576-.117.139-.298.208-.544.208-.245 0-.432-.07-.56-.208-.128-.139-.192-.33-.192-.576v-8.256h.352l-3.712 6.864a1.09 1.09 0 0 1-.272.352c-.096.075-.23.112-.4.112a.71.71 0 0 1-.416-.112 1.214 1.214 0 0 1-.288-.352l-3.744-6.88h.384v8.272c0 .245-.064.437-.192.576-.117.139-.298.208-.544.208Zm15.302.032a3.316 3.316 0 0 1-1.472-.32 2.58 2.58 0 0 1-1.008-.864 2.148 2.148 0 0 1-.368-1.232c0-.576.144-1.03.431-1.36.3-.341.784-.581 1.456-.72.683-.15 1.601-.224 2.753-.224h.752v.992h-.736c-.768 0-1.376.037-1.824.112-.448.075-.768.203-.96.384-.182.17-.272.41-.272.72 0 .405.138.736.415.992.278.245.662.368 1.153.368.394 0 .741-.09 1.04-.272.298-.192.533-.448.704-.768.181-.32.272-.688.272-1.104v-1.84c0-.608-.128-1.045-.384-1.312-.256-.267-.678-.4-1.264-.4-.342 0-.699.043-1.072.128a5.04 5.04 0 0 0-1.137.432c-.18.085-.336.112-.464.08a.51.51 0 0 1-.303-.208.803.803 0 0 1-.129-.368c0-.139.032-.272.096-.4a.683.683 0 0 1 .369-.288 6.33 6.33 0 0 1 2.688-.624c.714 0 1.301.112 1.76.336.469.224.816.565 1.04 1.024.224.459.336 1.05.336 1.776v4.112c0 .256-.064.459-.192.608-.128.139-.315.208-.56.208-.235 0-.422-.07-.56-.208-.139-.15-.208-.352-.208-.608v-1.04h.144a2.41 2.41 0 0 1-.48 1.024c-.224.277-.507.49-.848.64a2.88 2.88 0 0 1-1.168.224Zm9.425 0c-.64 0-1.178-.112-1.616-.336a2.15 2.15 0 0 1-.976-.992c-.213-.437-.32-.97-.32-1.6V15.44h-.96c-.213 0-.378-.053-.496-.16a.629.629 0 0 1-.176-.464c0-.203.059-.357.176-.464.118-.107.283-.16.496-.16h.96v-1.648c0-.267.07-.47.208-.608.15-.139.352-.208.608-.208s.454.07.592.208c.139.139.208.341.208.608v1.648h1.872c.214 0 .379.053.496.16.118.107.176.261.176.464a.625.625 0 0 1-.176.464c-.117.107-.282.16-.496.16h-1.872v3.648c0 .565.118.992.352 1.28.246.288.64.432 1.184.432.192 0 .358-.016.496-.048.15-.043.272-.07.368-.08.118 0 .214.043.288.128.075.075.112.224.112.448 0 .16-.032.31-.096.448a.433.433 0 0 1-.304.272 3.15 3.15 0 0 1-.528.112 2.958 2.958 0 0 1-.576.064Zm3.457-.032c-.256 0-.454-.07-.592-.208-.139-.15-.208-.352-.208-.608v-9.872c0-.267.069-.47.208-.608.138-.139.336-.208.592-.208.256 0 .453.07.592.208.149.139.224.341.224.608v4.432h-.224c.234-.597.602-1.045 1.104-1.344.501-.31 1.077-.464 1.728-.464.618 0 1.13.117 1.536.352.416.224.725.57.928 1.04.202.459.304 1.04.304 1.744v4.112c0 .256-.07.459-.208.608-.139.139-.336.208-.592.208-.267 0-.47-.07-.608-.208-.139-.15-.208-.352-.208-.608V17.28c0-.672-.134-1.163-.4-1.472-.256-.31-.662-.464-1.216-.464-.651 0-1.174.203-1.568.608-.384.405-.576.95-.576 1.632v3.712c0 .544-.272.816-.816.816Z"/>
</svg>
