<svg xmlns="http://www.w3.org/2000/svg" width="24" height="25" fill="none" viewBox="0 0 24 25">
    <path fill="#D5D7DA" d="M17 11.75A5.256 5.256 0 0 0 11.75 17 5.256 5.256 0 0 0 17 22.25 5.256 5.256 0 0 0 22.25 17 5.256 5.256 0 0 0 17 11.75Zm0 8.125a.75.75 0 1 1 0-1.5.75.75 0 0 1 0 1.5Zm.75-2.75a.75.75 0 1 1-1.5 0v-2a.75.75 0 1 1 1.5 0v2Zm-1-6.865V5.5c0-1.52-1.23-2.75-2.75-2.75H5c-1.52 0-2.75 1.23-2.75 2.75v13c0 1.52 1.23 2.75 2.75 2.75h6.76A6.735 6.735 0 0 1 10.25 17c0-3.64 2.89-6.61 6.5-6.74ZM6 6.75h7c.41 0 .75.34.75.75s-.34.75-.75.75H6c-.41 0-.75-.34-.75-.75s.34-.75.75-.75Zm0 3h7c.41 0 .75.34.75.75s-.34.75-.75.75H6c-.41 0-.75-.34-.75-.75s.34-.75.75-.75Zm3 4.5H6c-.41 0-.75-.34-.75-.75s.34-.75.75-.75h3c.41 0 .75.34.75.75s-.34.75-.75.75Z"/>
</svg>
