<svg xmlns="http://www.w3.org/2000/svg" width="49" height="51" fill="none" viewBox="0 0 49 51">
    <path fill="#FDFDFD" d="M24.5 13c-2.757 0-5 2.243-5 5s2.243 5 5 5 5-2.243 5-5-2.243-5-5-5Zm3 6a1 1 0 0 1-1-1c0-1.103-.897-2-2-2a1 1 0 0 1 0-2c2.206 0 4 1.794 4 4a1 1 0 0 1-1 1Zm2.53-12-.56-2.243A1.001 1.001 0 0 0 28.5 4h-8c-.459 0-.858.313-.97.757L18.97 7h11.06Z"/>
    <path fill="#FDFDFD" d="M36.5 8h-24c-1.654 0-3 1.346-3 3v14c0 1.654 1.346 3 3 3h24c1.654 0 3-1.346 3-3V11c0-1.654-1.346-3-3-3Zm-22 6a1 1 0 1 1 0-2 1 1 0 0 1 0 2Zm10 11c-3.859 0-7-3.14-7-7s3.141-7 7-7 7 3.14 7 7-3.141 7-7 7ZM5.488 46.126c-.97 0-1.801-.205-2.492-.616A4.09 4.09 0 0 1 1.4 43.76c-.364-.756-.546-1.657-.546-2.702 0-.784.103-1.484.308-2.1.215-.625.518-1.153.91-1.582a3.977 3.977 0 0 1 1.47-1.008c.579-.243 1.227-.364 1.946-.364.579 0 1.13.084 1.652.252.523.159.975.397 1.358.714.121.093.2.2.238.322a.465.465 0 0 1 .014.336.541.541 0 0 1-.168.266.41.41 0 0 1-.28.098c-.112 0-.238-.047-.378-.14a3.457 3.457 0 0 0-1.106-.602 4.182 4.182 0 0 0-1.302-.196c-.737 0-1.363.159-1.876.476-.513.308-.9.76-1.162 1.358-.261.597-.392 1.32-.392 2.17 0 .85.13 1.577.392 2.184.261.597.649 1.055 1.162 1.372.513.308 1.139.462 1.876.462.457 0 .891-.065 1.302-.196.41-.14.789-.345 1.134-.616.14-.093.266-.135.378-.126a.41.41 0 0 1 .28.098.5.5 0 0 1 .154.252.477.477 0 0 1 0 .322.529.529 0 0 1-.21.294 4.09 4.09 0 0 1-1.386.77 5.459 5.459 0 0 1-1.68.252Zm6.92 0a2.9 2.9 0 0 1-1.26-.266 2.283 2.283 0 0 1-.869-.756 1.856 1.856 0 0 1-.322-1.064c0-.504.126-.9.378-1.19.261-.29.686-.495 1.274-.616.598-.121 1.41-.182 2.436-.182h.63v.742h-.616c-.756 0-1.353.037-1.792.112-.43.065-.732.182-.91.35-.168.168-.252.406-.252.714 0 .383.13.695.392.938.27.243.635.364 1.092.364a1.807 1.807 0 0 0 1.652-.994c.168-.308.252-.663.252-1.064v-1.596c0-.579-.117-.994-.35-1.246-.233-.261-.616-.392-1.148-.392a3.92 3.92 0 0 0-.98.126 5.07 5.07 0 0 0-1.036.406c-.13.065-.242.089-.336.07a.424.424 0 0 1-.224-.154.494.494 0 0 1-.098-.252c-.01-.103.01-.2.056-.294a.594.594 0 0 1 .252-.224c.41-.205.817-.355 1.218-.448.402-.093.784-.14 1.148-.14.588 0 1.074.098 1.456.294.383.187.667.476.854.868.187.383.28.877.28 1.484v3.794c0 .187-.046.331-.14.434-.084.103-.21.154-.378.154-.177 0-.313-.051-.406-.154-.093-.103-.14-.247-.14-.434v-1.092h.126c-.075.355-.22.658-.434.91a2.096 2.096 0 0 1-.77.588c-.308.14-.653.21-1.036.21Zm5.869-.028c-.187 0-.327-.051-.42-.154-.093-.103-.14-.247-.14-.434v-5.838c0-.187.047-.327.14-.42.093-.103.229-.154.406-.154.177 0 .313.051.406.154.103.093.154.233.154.42v1.232l-.154-.196c.177-.523.462-.924.854-1.204.401-.29.877-.434 1.428-.434.579 0 1.045.14 1.4.42.364.27.607.695.728 1.274h-.21a2.32 2.32 0 0 1 .896-1.232c.439-.308.947-.462 1.526-.462.513 0 .933.098 1.26.294.336.196.588.495.756.896.168.392.252.891.252 1.498v3.752c0 .187-.051.331-.154.434-.093.103-.233.154-.42.154a.567.567 0 0 1-.42-.154c-.093-.103-.14-.247-.14-.434v-3.696c0-.625-.107-1.083-.322-1.372-.215-.299-.579-.448-1.092-.448-.56 0-1.003.196-1.33.588-.317.383-.476.905-.476 1.568v3.36c0 .187-.051.331-.154.434-.093.103-.233.154-.42.154a.567.567 0 0 1-.42-.154c-.093-.103-.14-.247-.14-.434v-3.696c0-.625-.112-1.083-.336-1.372-.215-.299-.574-.448-1.078-.448-.56 0-1.003.196-1.33.588-.317.383-.476.905-.476 1.568v3.36c0 .392-.191.588-.574.588Zm14.468.028c-.718 0-1.34-.14-1.862-.42a3.085 3.085 0 0 1-1.204-1.218c-.28-.523-.42-1.148-.42-1.876 0-.71.14-1.325.42-1.848.28-.532.663-.947 1.148-1.246.495-.299 1.064-.448 1.708-.448.458 0 .868.08 1.232.238.364.15.672.369.924.658.262.29.458.64.588 1.05.14.41.21.873.21 1.386 0 .15-.042.261-.126.336-.084.065-.205.098-.364.098h-4.872v-.742h4.606l-.224.182c0-.504-.074-.929-.224-1.274a1.735 1.735 0 0 0-.658-.812c-.28-.187-.634-.28-1.064-.28-.476 0-.882.112-1.218.336a1.999 1.999 0 0 0-.742.91c-.168.383-.252.83-.252 1.344v.084c0 .859.206 1.512.616 1.96.42.448 1.013.672 1.778.672.318 0 .63-.042.938-.126.318-.084.626-.224.924-.42.13-.084.248-.121.35-.112.112 0 .2.033.266.098.066.056.108.13.126.224a.376.376 0 0 1-.028.28.535.535 0 0 1-.238.266 3.48 3.48 0 0 1-1.092.518c-.42.121-.835.182-1.246.182Zm4.96-.028c-.187 0-.332-.051-.435-.154-.093-.103-.14-.247-.14-.434v-5.838c0-.187.047-.327.14-.42.094-.103.23-.154.406-.154.178 0 .313.051.406.154.103.093.154.233.154.42v1.134h-.14c.15-.55.434-.975.854-1.274.42-.299.938-.457 1.554-.476a.44.44 0 0 1 .336.098c.084.065.131.182.14.35a.498.498 0 0 1-.112.378c-.084.093-.214.15-.392.168l-.224.028c-.634.056-1.124.261-1.47.616-.336.345-.504.821-.504 1.428v3.388c0 .187-.05.331-.154.434-.093.103-.233.154-.42.154Zm6.517.028c-.467 0-.887-.089-1.26-.266a2.283 2.283 0 0 1-.868-.756 1.857 1.857 0 0 1-.322-1.064c0-.504.126-.9.378-1.19.261-.29.686-.495 1.274-.616.597-.121 1.409-.182 2.436-.182h.63v.742h-.616c-.756 0-1.354.037-1.792.112-.43.065-.733.182-.91.35-.168.168-.252.406-.252.714 0 .383.13.695.392.938.27.243.634.364 1.092.364a1.81 1.81 0 0 0 1.652-.994c.168-.308.252-.663.252-1.064v-1.596c0-.579-.117-.994-.35-1.246-.234-.261-.616-.392-1.148-.392-.327 0-.654.042-.98.126a5.07 5.07 0 0 0-1.036.406c-.131.065-.243.089-.336.07a.424.424 0 0 1-.224-.154.495.495 0 0 1-.098-.252.528.528 0 0 1 .056-.294.594.594 0 0 1 .252-.224 5.5 5.5 0 0 1 1.218-.448c.401-.093.784-.14 1.148-.14.588 0 1.073.098 1.456.294a1.8 1.8 0 0 1 .854.868c.186.383.28.877.28 1.484v3.794c0 .187-.047.331-.14.434-.084.103-.21.154-.378.154-.178 0-.313-.051-.406-.154-.094-.103-.14-.247-.14-.434v-1.092h.126c-.075.355-.22.658-.434.91a2.096 2.096 0 0 1-.77.588c-.308.14-.654.21-1.036.21Z"/>
</svg>
