<svg xmlns="http://www.w3.org/2000/svg" width="49" height="51" fill="none" viewBox="0 0 49 51">
    <path fill="#EDEF5D" d="M24.5 13c-2.757 0-5 2.243-5 5s2.243 5 5 5 5-2.243 5-5-2.243-5-5-5Zm3 6a1 1 0 0 1-1-1c0-1.103-.897-2-2-2a1 1 0 0 1 0-2c2.206 0 4 1.794 4 4a1 1 0 0 1-1 1Zm2.53-12-.56-2.243A1.001 1.001 0 0 0 28.5 4h-8c-.459 0-.858.313-.97.757L18.97 7h11.06Z"/>
    <path fill="#EDEF5D" d="M36.5 8h-24c-1.654 0-3 1.346-3 3v14c0 1.654 1.346 3 3 3h24c1.654 0 3-1.346 3-3V11c0-1.654-1.346-3-3-3Zm-22 6a1 1 0 1 1 0-2 1 1 0 0 1 0 2Zm10 11c-3.859 0-7-3.14-7-7s3.141-7 7-7 7 3.14 7 7-3.141 7-7 7Z"/>
    <g filter="url(#a)">
        <rect width="49" height="3" y="48" fill="#EDEF5D" rx="1.5"/>
    </g>
    <defs>
        <filter id="a" width="49" height="4" x="0" y="48" color-interpolation-filters="sRGB" filterUnits="userSpaceOnUse">
            <feFlood flood-opacity="0" result="BackgroundImageFix"/>
            <feBlend in="SourceGraphic" in2="BackgroundImageFix" result="shape"/>
            <feColorMatrix in="SourceAlpha" result="hardAlpha" values="0 0 0 0 0 0 0 0 0 0 0 0 0 0 0 0 0 0 127 0"/>
            <feOffset dy="1"/>
            <feGaussianBlur stdDeviation="1"/>
            <feComposite in2="hardAlpha" k2="-1" k3="1" operator="arithmetic"/>
            <feColorMatrix values="0 0 0 0 0 0 0 0 0 0 0 0 0 0 0 0 0 0 0.25 0"/>
            <feBlend in2="shape" result="effect1_innerShadow_487_2347"/>
        </filter>
    </defs>
</svg>
