<svg width="16" height="17" viewBox="0 0 16 17" fill="none" xmlns="http://www.w3.org/2000/svg">
<g clip-path="url(#clip0_41_235)">
<path d="M10 14H6C5.86739 14 5.74021 14.0527 5.64645 14.1464C5.55268 14.2402 5.5 14.3674 5.5 14.5V15C5.5 15.827 6.173 16.5 7 16.5H9C9.827 16.5 10.5 15.827 10.5 15V14.5C10.5 14.3674 10.4473 14.2402 10.3536 14.1464C10.2598 14.0527 10.1326 14 10 14ZM2 7.5H1C0.867392 7.5 0.740215 7.55268 0.646447 7.64645C0.552678 7.74021 0.5 7.86739 0.5 8C0.5 8.13261 0.552678 8.25979 0.646447 8.35355C0.740215 8.44732 0.867392 8.5 1 8.5H2C2.13261 8.5 2.25979 8.44732 2.35355 8.35355C2.44732 8.25979 2.5 8.13261 2.5 8C2.5 7.86739 2.44732 7.74021 2.35355 7.64645C2.25979 7.55268 2.13261 7.5 2 7.5ZM15 7.5H14C13.8674 7.5 13.7402 7.55268 13.6464 7.64645C13.5527 7.74021 13.5 7.86739 13.5 8C13.5 8.13261 13.5527 8.25979 13.6464 8.35355C13.7402 8.44732 13.8674 8.5 14 8.5H15C15.1326 8.5 15.2598 8.44732 15.3536 8.35355C15.4473 8.25979 15.5 8.13261 15.5 8C15.5 7.86739 15.4473 7.74021 15.3536 7.64645C15.2598 7.55268 15.1326 7.5 15 7.5ZM3.9645 3.9645C4.05824 3.87074 4.11089 3.74358 4.11089 3.611C4.11089 3.47842 4.05824 3.35126 3.9645 3.2575L3.404 2.697C3.35788 2.64925 3.3027 2.61115 3.2417 2.58495C3.1807 2.55874 3.11509 2.54495 3.0487 2.54437C2.98231 2.5438 2.91647 2.55645 2.85502 2.58159C2.79357 2.60673 2.73775 2.64386 2.6908 2.6908C2.64386 2.73775 2.60673 2.79357 2.58159 2.85502C2.55645 2.91647 2.5438 2.98231 2.54437 3.0487C2.54495 3.11509 2.55874 3.1807 2.58495 3.2417C2.61115 3.3027 2.64925 3.35788 2.697 3.404L3.257 3.964C3.35167 4.05621 3.4786 4.10781 3.61075 4.10781C3.7429 4.10781 3.86983 4.05671 3.9645 3.9645ZM12.596 2.697L12.036 3.257C11.9895 3.30344 11.9526 3.35858 11.9275 3.41928C11.9023 3.47998 11.8894 3.54504 11.8894 3.61075C11.8894 3.67646 11.9023 3.74152 11.9275 3.80222C11.9526 3.86292 11.9895 3.91806 12.036 3.9645C12.217 4.146 12.553 4.154 12.7425 3.9645L13.303 3.404C13.3508 3.35788 13.3888 3.3027 13.4151 3.2417C13.4413 3.1807 13.455 3.11509 13.4556 3.0487C13.4562 2.98231 13.4436 2.91647 13.4184 2.85502C13.3933 2.79357 13.3561 2.73775 13.3092 2.6908C13.2623 2.64386 13.2064 2.60673 13.145 2.58159C13.0835 2.55645 13.0177 2.5438 12.9513 2.54437C12.8849 2.54495 12.8193 2.55874 12.7583 2.58495C12.6973 2.61115 12.6421 2.64925 12.596 2.697ZM8 2.5C8.13261 2.5 8.25979 2.44732 8.35355 2.35355C8.44732 2.25979 8.5 2.13261 8.5 2V1C8.5 0.867392 8.44732 0.740215 8.35355 0.646447C8.25979 0.552678 8.13261 0.5 8 0.5C7.86739 0.5 7.74021 0.552678 7.64645 0.646447C7.55268 0.740215 7.5 0.867392 7.5 1V2C7.5 2.13261 7.55268 2.25979 7.64645 2.35355C7.74021 2.44732 7.86739 2.5 8 2.5ZM8.4925 3.5275C7.86212 3.46029 7.22466 3.52594 6.62121 3.72023C6.01777 3.91451 5.46174 4.23312 4.989 4.6555C4.52054 5.0777 4.14594 5.59355 3.88945 6.16968C3.63295 6.7458 3.50027 7.36936 3.5 8C3.5 9.064 3.878 10.095 4.5615 10.9015C4.9615 11.378 5.2375 11.9525 5.3815 12.6075C5.406 12.7188 5.46779 12.8184 5.55663 12.8898C5.64547 12.9612 5.75603 13 5.87 13H10.13C10.2435 12.9999 10.3535 12.9613 10.4421 12.8904C10.5307 12.8196 10.5925 12.7207 10.6175 12.61C10.7593 11.9731 11.0495 11.3786 11.4645 10.875C11.876 10.3775 12.1758 9.7969 12.3439 9.17351C12.5119 8.55012 12.5442 7.89793 12.4385 7.261C12.126 5.306 10.4665 3.736 8.4925 3.5275ZM8 10C7.86739 10 7.74021 9.94732 7.64645 9.85355C7.55268 9.75979 7.5 9.63261 7.5 9.5C7.5 9.36739 7.55268 9.24021 7.64645 9.14645C7.74021 9.05268 7.86739 9 8 9C8.13261 9 8.25979 9.05268 8.35355 9.14645C8.44732 9.24021 8.5 9.36739 8.5 9.5C8.5 9.63261 8.44732 9.75979 8.35355 9.85355C8.25979 9.94732 8.13261 10 8 10ZM8.5 8C8.5 8.13261 8.44732 8.25979 8.35355 8.35355C8.25979 8.44732 8.13261 8.5 8 8.5C7.86739 8.5 7.74021 8.44732 7.64645 8.35355C7.55268 8.25979 7.5 8.13261 7.5 8V6.5C7.5 6.36739 7.55268 6.24021 7.64645 6.14645C7.74021 6.05268 7.86739 6 8 6C8.13261 6 8.25979 6.05268 8.35355 6.14645C8.44732 6.24021 8.5 6.36739 8.5 6.5V8Z" fill="#FDFDFD"/>
</g>
<defs>
<clipPath id="clip0_41_235">
<rect width="16" height="16" fill="white" transform="translate(0 0.5)"/>
</clipPath>
</defs>
</svg>
