<svg xmlns="http://www.w3.org/2000/svg" width="56" height="56" fill="none" viewBox="0 0 56 56">
    <rect width="56" height="56" fill="#0A0D12" rx="16"/>
    <rect width="55" height="55" x=".5" y=".5" stroke="#A4A7AE" stroke-opacity=".2" rx="15.5"/>
    <path fill="#EDEF5D" d="M34.44 22.24c-3.733 0-5.594 2.777-7.237 5.226-1.575 2.348-2.936 4.374-5.643 4.374-2.007 0-3.64-1.722-3.64-3.84 0-2.117 1.632-3.84 3.638-3.84 1.23 0 2.248.405 3.209 1.28.219.197.43.414.625.64a.961.961 0 0 0 1.453-1.257 9.124 9.124 0 0 0-.791-.807c-1.313-1.196-2.783-1.776-4.494-1.776-3.065 0-5.56 2.584-5.56 5.76 0 3.177 2.495 5.76 5.56 5.76 3.733 0 5.594-2.776 7.237-5.225 1.575-2.348 2.936-4.375 5.643-4.375 2.007 0 3.64 1.723 3.64 3.84 0 2.118-1.632 3.84-3.638 3.84-1.23 0-2.248-.405-3.209-1.28a7.138 7.138 0 0 1-.625-.639.962.962 0 0 0-1.453 1.257c.25.288.518.562.79.806 1.314 1.196 2.784 1.776 4.495 1.776 3.065 0 5.56-2.583 5.56-5.76 0-3.176-2.495-5.76-5.56-5.76Z"/>
</svg>
