<svg xmlns="http://www.w3.org/2000/svg" width="56" height="56" fill="none" viewBox="0 0 56 56">
    <rect width="56" height="56" fill="#0A0D12" rx="16"/>
    <rect width="55" height="55" x=".5" y=".5" stroke="#A4A7AE" stroke-opacity=".2" rx="15.5"/>
    <path fill="#EDEF5D" d="M35.822 25.014c-2.296 0-3.152 2.628-3.907 4.946l-.114.349h-5.473a20.684 20.684 0 0 1-.91-3.213c-.506-2.742-2.17-4.402-4.508-3.887v-4.994c-.018-.946-1.425-.961-1.449 0v19.56a.724.724 0 1 0 1.45 0v-6.017h4.449c1.062 2.347 2.439 3.733 3.87 3.733 1.958 0 2.905-1.785 3.607-3.733h2.09a.724.724 0 1 0 0-1.45h-1.602c.76-2.325 1.355-3.845 2.497-3.845.95-.02.96-1.425 0-1.449ZM20.91 30.31v-5.601c3.138-1.025 3.008 3.571 3.878 5.6H20.91v.001Zm8.32 3.733c-.578 0-1.44-.734-2.255-2.284h4.312c-.557 1.421-1.136 2.284-2.056 2.284Zm6.028-.48c-.28.005-.391.25-.362.501a.391.391 0 0 1-.782 0c.03-.25-.082-.499-.363-.503-.28.005-.392.252-.362.503-.015.763.801 1.324 1.508 1.044v.473c-.003.247-.23.357-.453.328a.33.33 0 0 1-.33-.329.362.362 0 1 0-.725 0c-.004.632.555 1.109 1.177 1.054.581 0 1.055-.473 1.055-1.054v-1.655a.36.36 0 0 0-.363-.362Z"/>
    <path fill="#EDEF5D" d="M22.256 22.2a.364.364 0 0 0 .512-.01l.432-.446.432.446a.362.362 0 0 0 .521-.503l-.449-.464.45-.464a.363.363 0 0 0-.522-.504l-.432.447-.432-.447a.362.362 0 1 0-.52.504l.448.464-.449.464a.361.361 0 0 0 .01.512Z"/>
</svg>
